
<mxfile host="drawio-plugin" modified="2022-06-06T19:13:58.056Z" agent="5.0 (Windows NT 6.2; Win64; x64) AppleWebKit/537.36 (KHTML, like Gecko) Chrome/89.0.4389.114 Safari/537.36" etag="D-NgWDLZWZorgAfUPKNI" version="15.5.4" type="embed"><diagram id="Sm_nSld03YN4w8bX5uwE" name="Page-1"><mxGraphModel dx="1213" dy="3768" grid="0" gridSize="10" guides="1" tooltips="1" connect="1" arrows="1" fold="1" page="0" pageScale="1" pageWidth="827" pageHeight="1169" math="0" shadow="0"><root><mxCell id="0"/><mxCell id="1" parent="0"/><mxCell id="ExdtPvuEu2BVj8xj11I--359" value="" style="ellipse;shape=cloud;whiteSpace=wrap;html=1;fontSize=17;dashed=1;" parent="1" vertex="1"><mxGeometry x="2672" y="-2679" width="341" height="245.5" as="geometry"/></mxCell><mxCell id="ExdtPvuEu2BVj8xj11I--79" value="" style="ellipse;shape=cloud;whiteSpace=wrap;html=1;fontSize=17;dashed=1;" parent="1" vertex="1"><mxGeometry x="2074" y="-2521" width="329" height="243" as="geometry"/></mxCell><mxCell id="US2ZV8XT3uplZTtyfbb9-1" style="edgeStyle=orthogonalEdgeStyle;rounded=0;orthogonalLoop=1;jettySize=auto;html=1;entryX=0.5;entryY=0;entryDx=0;entryDy=0;fontSize=24;strokeWidth=2;" parent="1" source="US2ZV8XT3uplZTtyfbb9-2" target="US2ZV8XT3uplZTtyfbb9-5" edge="1"><mxGeometry relative="1" as="geometry"/></mxCell><mxCell id="US2ZV8XT3uplZTtyfbb9-2" value="&lt;font style=&quot;font-size: 24px&quot;&gt;K&lt;/font&gt;" style="ellipse;whiteSpace=wrap;html=1;aspect=fixed;" parent="1" vertex="1"><mxGeometry x="220" y="80" width="80" height="80" as="geometry"/></mxCell><mxCell id="US2ZV8XT3uplZTtyfbb9-3" style="edgeStyle=orthogonalEdgeStyle;rounded=0;orthogonalLoop=1;jettySize=auto;html=1;entryX=0.5;entryY=0;entryDx=0;entryDy=0;fontSize=24;strokeWidth=2;" parent="1" source="US2ZV8XT3uplZTtyfbb9-5" target="US2ZV8XT3uplZTtyfbb9-7" edge="1"><mxGeometry relative="1" as="geometry"/></mxCell><mxCell id="US2ZV8XT3uplZTtyfbb9-4" style="edgeStyle=orthogonalEdgeStyle;rounded=0;orthogonalLoop=1;jettySize=auto;html=1;entryX=0.5;entryY=0;entryDx=0;entryDy=0;fontSize=24;strokeWidth=2;" parent="1" source="US2ZV8XT3uplZTtyfbb9-5" target="US2ZV8XT3uplZTtyfbb9-14" edge="1"><mxGeometry relative="1" as="geometry"/></mxCell><mxCell id="US2ZV8XT3uplZTtyfbb9-5" value="&lt;span style=&quot;font-size: 24px&quot;&gt;A&lt;/span&gt;" style="ellipse;whiteSpace=wrap;html=1;aspect=fixed;" parent="1" vertex="1"><mxGeometry x="220" y="210" width="80" height="80" as="geometry"/></mxCell><mxCell id="US2ZV8XT3uplZTtyfbb9-6" style="edgeStyle=orthogonalEdgeStyle;rounded=0;orthogonalLoop=1;jettySize=auto;html=1;fontSize=24;strokeWidth=2;" parent="1" source="US2ZV8XT3uplZTtyfbb9-7" target="US2ZV8XT3uplZTtyfbb9-10" edge="1"><mxGeometry relative="1" as="geometry"/></mxCell><mxCell id="US2ZV8XT3uplZTtyfbb9-7" value="&lt;font style=&quot;font-size: 24px&quot;&gt;F&lt;/font&gt;" style="ellipse;whiteSpace=wrap;html=1;aspect=fixed;" parent="1" vertex="1"><mxGeometry x="220" y="340" width="80" height="80" as="geometry"/></mxCell><mxCell id="US2ZV8XT3uplZTtyfbb9-8" style="edgeStyle=orthogonalEdgeStyle;rounded=0;orthogonalLoop=1;jettySize=auto;html=1;fontSize=24;" parent="1" source="US2ZV8XT3uplZTtyfbb9-10" target="US2ZV8XT3uplZTtyfbb9-12" edge="1"><mxGeometry relative="1" as="geometry"/></mxCell><mxCell id="US2ZV8XT3uplZTtyfbb9-9" value="" style="edgeStyle=orthogonalEdgeStyle;rounded=0;orthogonalLoop=1;jettySize=auto;html=1;fontSize=24;strokeWidth=2;" parent="1" source="US2ZV8XT3uplZTtyfbb9-10" target="US2ZV8XT3uplZTtyfbb9-12" edge="1"><mxGeometry relative="1" as="geometry"/></mxCell><mxCell id="US2ZV8XT3uplZTtyfbb9-10" value="&lt;font style=&quot;font-size: 24px&quot;&gt;K&lt;/font&gt;" style="ellipse;whiteSpace=wrap;html=1;aspect=fixed;" parent="1" vertex="1"><mxGeometry x="220" y="460" width="80" height="80" as="geometry"/></mxCell><mxCell id="US2ZV8XT3uplZTtyfbb9-11" style="edgeStyle=orthogonalEdgeStyle;rounded=0;orthogonalLoop=1;jettySize=auto;html=1;entryX=0.5;entryY=0;entryDx=0;entryDy=0;fontSize=24;strokeWidth=2;" parent="1" source="US2ZV8XT3uplZTtyfbb9-12" target="US2ZV8XT3uplZTtyfbb9-29" edge="1"><mxGeometry relative="1" as="geometry"/></mxCell><mxCell id="US2ZV8XT3uplZTtyfbb9-12" value="&lt;font style=&quot;font-size: 24px&quot;&gt;A&lt;/font&gt;" style="ellipse;whiteSpace=wrap;html=1;aspect=fixed;fillColor=#f8cecc;strokeColor=#b85450;" parent="1" vertex="1"><mxGeometry x="220" y="580" width="80" height="80" as="geometry"/></mxCell><mxCell id="US2ZV8XT3uplZTtyfbb9-13" style="edgeStyle=orthogonalEdgeStyle;rounded=0;orthogonalLoop=1;jettySize=auto;html=1;entryX=0.5;entryY=0;entryDx=0;entryDy=0;fontSize=24;strokeWidth=2;" parent="1" source="US2ZV8XT3uplZTtyfbb9-14" target="US2ZV8XT3uplZTtyfbb9-16" edge="1"><mxGeometry relative="1" as="geometry"/></mxCell><mxCell id="US2ZV8XT3uplZTtyfbb9-14" value="&lt;font style=&quot;font-size: 24px&quot;&gt;R&lt;/font&gt;" style="ellipse;whiteSpace=wrap;html=1;aspect=fixed;" parent="1" vertex="1"><mxGeometry x="400" y="340" width="80" height="80" as="geometry"/></mxCell><mxCell id="US2ZV8XT3uplZTtyfbb9-15" style="edgeStyle=orthogonalEdgeStyle;rounded=0;orthogonalLoop=1;jettySize=auto;html=1;entryX=0.5;entryY=0;entryDx=0;entryDy=0;fontSize=24;strokeWidth=2;" parent="1" source="US2ZV8XT3uplZTtyfbb9-16" target="US2ZV8XT3uplZTtyfbb9-17" edge="1"><mxGeometry relative="1" as="geometry"/></mxCell><mxCell id="US2ZV8XT3uplZTtyfbb9-16" value="&lt;font style=&quot;font-size: 24px&quot;&gt;M&lt;/font&gt;" style="ellipse;whiteSpace=wrap;html=1;aspect=fixed;" parent="1" vertex="1"><mxGeometry x="400" y="460" width="80" height="80" as="geometry"/></mxCell><mxCell id="US2ZV8XT3uplZTtyfbb9-17" value="&lt;font style=&quot;font-size: 24px&quot;&gt;A&lt;/font&gt;" style="ellipse;whiteSpace=wrap;html=1;aspect=fixed;fillColor=#f8cecc;strokeColor=#b85450;" parent="1" vertex="1"><mxGeometry x="400" y="580" width="80" height="80" as="geometry"/></mxCell><mxCell id="US2ZV8XT3uplZTtyfbb9-18" style="edgeStyle=orthogonalEdgeStyle;rounded=0;orthogonalLoop=1;jettySize=auto;html=1;fontSize=24;strokeWidth=2;" parent="1" source="US2ZV8XT3uplZTtyfbb9-20" target="US2ZV8XT3uplZTtyfbb9-2" edge="1"><mxGeometry relative="1" as="geometry"/></mxCell><mxCell id="US2ZV8XT3uplZTtyfbb9-19" style="edgeStyle=orthogonalEdgeStyle;rounded=0;orthogonalLoop=1;jettySize=auto;html=1;entryX=0.5;entryY=0;entryDx=0;entryDy=0;fontSize=24;strokeWidth=2;" parent="1" source="US2ZV8XT3uplZTtyfbb9-20" target="US2ZV8XT3uplZTtyfbb9-22" edge="1"><mxGeometry relative="1" as="geometry"/></mxCell><mxCell id="US2ZV8XT3uplZTtyfbb9-20" value="" style="ellipse;whiteSpace=wrap;html=1;aspect=fixed;fillColor=#d5e8d4;strokeColor=#82b366;" parent="1" vertex="1"><mxGeometry x="400" y="-30" width="80" height="80" as="geometry"/></mxCell><mxCell id="US2ZV8XT3uplZTtyfbb9-21" style="edgeStyle=orthogonalEdgeStyle;rounded=0;orthogonalLoop=1;jettySize=auto;html=1;entryX=0.5;entryY=0;entryDx=0;entryDy=0;fontSize=24;strokeWidth=2;" parent="1" source="US2ZV8XT3uplZTtyfbb9-22" target="US2ZV8XT3uplZTtyfbb9-24" edge="1"><mxGeometry relative="1" as="geometry"/></mxCell><mxCell id="US2ZV8XT3uplZTtyfbb9-22" value="&lt;font style=&quot;font-size: 24px&quot;&gt;J&lt;/font&gt;" style="ellipse;whiteSpace=wrap;html=1;aspect=fixed;" parent="1" vertex="1"><mxGeometry x="580" y="80" width="80" height="80" as="geometry"/></mxCell><mxCell id="US2ZV8XT3uplZTtyfbb9-23" style="edgeStyle=orthogonalEdgeStyle;rounded=0;orthogonalLoop=1;jettySize=auto;html=1;fontSize=24;strokeWidth=2;" parent="1" source="US2ZV8XT3uplZTtyfbb9-24" target="US2ZV8XT3uplZTtyfbb9-26" edge="1"><mxGeometry relative="1" as="geometry"/></mxCell><mxCell id="US2ZV8XT3uplZTtyfbb9-24" value="&lt;font style=&quot;font-size: 24px&quot;&gt;A&lt;/font&gt;" style="ellipse;whiteSpace=wrap;html=1;aspect=fixed;" parent="1" vertex="1"><mxGeometry x="580" y="210" width="80" height="80" as="geometry"/></mxCell><mxCell id="US2ZV8XT3uplZTtyfbb9-25" style="edgeStyle=orthogonalEdgeStyle;rounded=0;orthogonalLoop=1;jettySize=auto;html=1;entryX=0.5;entryY=0;entryDx=0;entryDy=0;fontSize=24;strokeWidth=2;" parent="1" source="US2ZV8XT3uplZTtyfbb9-26" target="US2ZV8XT3uplZTtyfbb9-27" edge="1"><mxGeometry relative="1" as="geometry"/></mxCell><mxCell id="US2ZV8XT3uplZTtyfbb9-26" value="&lt;font style=&quot;font-size: 24px&quot;&gt;I&lt;/font&gt;" style="ellipse;whiteSpace=wrap;html=1;aspect=fixed;" parent="1" vertex="1"><mxGeometry x="580" y="340" width="80" height="80" as="geometry"/></mxCell><mxCell id="US2ZV8XT3uplZTtyfbb9-27" value="&lt;font style=&quot;font-size: 24px&quot;&gt;L&lt;/font&gt;" style="ellipse;whiteSpace=wrap;html=1;aspect=fixed;fillColor=#f8cecc;strokeColor=#b85450;" parent="1" vertex="1"><mxGeometry x="580" y="460" width="80" height="80" as="geometry"/></mxCell><mxCell id="US2ZV8XT3uplZTtyfbb9-28" style="edgeStyle=orthogonalEdgeStyle;rounded=0;orthogonalLoop=1;jettySize=auto;html=1;entryX=0;entryY=0.5;entryDx=0;entryDy=0;fontSize=24;strokeWidth=2;" parent="1" source="US2ZV8XT3uplZTtyfbb9-29" target="US2ZV8XT3uplZTtyfbb9-31" edge="1"><mxGeometry relative="1" as="geometry"/></mxCell><mxCell id="US2ZV8XT3uplZTtyfbb9-29" value="&lt;span style=&quot;font-size: 24px&quot;&gt;E&lt;/span&gt;" style="ellipse;whiteSpace=wrap;html=1;aspect=fixed;" parent="1" vertex="1"><mxGeometry x="220" y="720" width="80" height="80" as="geometry"/></mxCell><mxCell id="US2ZV8XT3uplZTtyfbb9-30" style="edgeStyle=orthogonalEdgeStyle;rounded=0;orthogonalLoop=1;jettySize=auto;html=1;entryX=0;entryY=0.5;entryDx=0;entryDy=0;fontSize=24;strokeWidth=2;" parent="1" source="US2ZV8XT3uplZTtyfbb9-31" target="US2ZV8XT3uplZTtyfbb9-33" edge="1"><mxGeometry relative="1" as="geometry"/></mxCell><mxCell id="US2ZV8XT3uplZTtyfbb9-31" value="&lt;font style=&quot;font-size: 24px&quot;&gt;S&lt;/font&gt;" style="ellipse;whiteSpace=wrap;html=1;aspect=fixed;" parent="1" vertex="1"><mxGeometry x="350" y="720" width="80" height="80" as="geometry"/></mxCell><mxCell id="US2ZV8XT3uplZTtyfbb9-32" style="edgeStyle=orthogonalEdgeStyle;rounded=0;orthogonalLoop=1;jettySize=auto;html=1;entryX=0;entryY=0.5;entryDx=0;entryDy=0;fontSize=24;strokeWidth=2;" parent="1" source="US2ZV8XT3uplZTtyfbb9-33" target="US2ZV8XT3uplZTtyfbb9-35" edge="1"><mxGeometry relative="1" as="geometry"/></mxCell><mxCell id="US2ZV8XT3uplZTtyfbb9-33" value="&lt;span style=&quot;font-size: 24px&quot;&gt;Q&lt;/span&gt;" style="ellipse;whiteSpace=wrap;html=1;aspect=fixed;" parent="1" vertex="1"><mxGeometry x="470" y="720" width="80" height="80" as="geometry"/></mxCell><mxCell id="US2ZV8XT3uplZTtyfbb9-34" style="edgeStyle=orthogonalEdgeStyle;rounded=0;orthogonalLoop=1;jettySize=auto;html=1;fontSize=24;strokeWidth=2;" parent="1" source="US2ZV8XT3uplZTtyfbb9-35" target="US2ZV8XT3uplZTtyfbb9-36" edge="1"><mxGeometry relative="1" as="geometry"/></mxCell><mxCell id="US2ZV8XT3uplZTtyfbb9-35" value="&lt;span style=&quot;font-size: 24px&quot;&gt;U&lt;/span&gt;" style="ellipse;whiteSpace=wrap;html=1;aspect=fixed;" parent="1" vertex="1"><mxGeometry x="580" y="720" width="80" height="80" as="geometry"/></mxCell><mxCell id="US2ZV8XT3uplZTtyfbb9-36" value="&lt;span style=&quot;font-size: 24px&quot;&gt;E&lt;/span&gt;" style="ellipse;whiteSpace=wrap;html=1;aspect=fixed;fillColor=#f8cecc;strokeColor=#b85450;" parent="1" vertex="1"><mxGeometry x="690" y="720" width="80" height="80" as="geometry"/></mxCell><mxCell id="US2ZV8XT3uplZTtyfbb9-37" value="&lt;span style=&quot;font-size: 24px&quot;&gt;H&lt;/span&gt;" style="ellipse;whiteSpace=wrap;html=1;aspect=fixed;" parent="1" vertex="1"><mxGeometry x="490" y="-640" width="80" height="80" as="geometry"/></mxCell><mxCell id="US2ZV8XT3uplZTtyfbb9-38" value="&lt;span style=&quot;font-size: 24px&quot;&gt;T&lt;/span&gt;" style="ellipse;whiteSpace=wrap;html=1;aspect=fixed;" parent="1" vertex="1"><mxGeometry x="620" y="-640" width="80" height="80" as="geometry"/></mxCell><mxCell id="US2ZV8XT3uplZTtyfbb9-39" value="&lt;span style=&quot;font-size: 24px&quot;&gt;O&lt;/span&gt;" style="ellipse;whiteSpace=wrap;html=1;aspect=fixed;" parent="1" vertex="1"><mxGeometry x="750" y="-640" width="80" height="80" as="geometry"/></mxCell><mxCell id="US2ZV8XT3uplZTtyfbb9-40" value="&lt;span style=&quot;font-size: 24px&quot;&gt;N&lt;/span&gt;" style="ellipse;whiteSpace=wrap;html=1;aspect=fixed;" parent="1" vertex="1"><mxGeometry x="880" y="-640" width="80" height="80" as="geometry"/></mxCell><mxCell id="US2ZV8XT3uplZTtyfbb9-41" value="&lt;span style=&quot;font-size: 24px&quot;&gt;1&lt;/span&gt;" style="ellipse;whiteSpace=wrap;html=1;aspect=fixed;" parent="1" vertex="1"><mxGeometry x="480" y="-860" width="80" height="80" as="geometry"/></mxCell><mxCell id="US2ZV8XT3uplZTtyfbb9-42" value="&lt;span style=&quot;font-size: 24px&quot;&gt;0&lt;/span&gt;" style="ellipse;whiteSpace=wrap;html=1;aspect=fixed;" parent="1" vertex="1"><mxGeometry x="620" y="-860" width="80" height="80" as="geometry"/></mxCell><mxCell id="US2ZV8XT3uplZTtyfbb9-43" value="&lt;span style=&quot;font-size: 24px&quot;&gt;0&lt;/span&gt;" style="ellipse;whiteSpace=wrap;html=1;aspect=fixed;" parent="1" vertex="1"><mxGeometry x="750" y="-860" width="80" height="80" as="geometry"/></mxCell><mxCell id="US2ZV8XT3uplZTtyfbb9-44" value="&lt;span style=&quot;font-size: 24px&quot;&gt;1&lt;/span&gt;" style="ellipse;whiteSpace=wrap;html=1;aspect=fixed;" parent="1" vertex="1"><mxGeometry x="880" y="-860" width="80" height="80" as="geometry"/></mxCell><mxCell id="US2ZV8XT3uplZTtyfbb9-45" style="edgeStyle=orthogonalEdgeStyle;rounded=0;orthogonalLoop=1;jettySize=auto;html=1;entryX=0;entryY=0.5;entryDx=0;entryDy=0;fontSize=24;strokeWidth=0;curved=1;startArrow=classic;startFill=1;exitX=1;exitY=0.5;exitDx=0;exitDy=0;" parent="1" source="US2ZV8XT3uplZTtyfbb9-46" target="US2ZV8XT3uplZTtyfbb9-47" edge="1"><mxGeometry relative="1" as="geometry"/></mxCell><mxCell id="US2ZV8XT3uplZTtyfbb9-46" value="&lt;span style=&quot;font-size: 24px&quot;&gt;A&lt;/span&gt;" style="ellipse;whiteSpace=wrap;html=1;aspect=fixed;" parent="1" vertex="1"><mxGeometry x="480" y="-1130" width="80" height="80" as="geometry"/></mxCell><mxCell id="US2ZV8XT3uplZTtyfbb9-47" value="" style="rounded=0;whiteSpace=wrap;html=1;fontSize=24;" parent="1" vertex="1"><mxGeometry x="600" y="-1120" width="310" height="60" as="geometry"/></mxCell><mxCell id="US2ZV8XT3uplZTtyfbb9-48" value="nil" style="text;html=1;strokeColor=none;fillColor=none;align=center;verticalAlign=middle;whiteSpace=wrap;rounded=0;fontSize=24;" parent="1" vertex="1"><mxGeometry x="590" y="-1105" width="60" height="30" as="geometry"/></mxCell><mxCell id="US2ZV8XT3uplZTtyfbb9-49" value="0" style="text;html=1;strokeColor=none;fillColor=none;align=center;verticalAlign=middle;whiteSpace=wrap;rounded=0;fontSize=24;" parent="1" vertex="1"><mxGeometry x="590" y="-1150" width="60" height="30" as="geometry"/></mxCell><mxCell id="US2ZV8XT3uplZTtyfbb9-50" style="edgeStyle=orthogonalEdgeStyle;rounded=0;orthogonalLoop=1;jettySize=auto;html=1;entryX=0.5;entryY=0;entryDx=0;entryDy=0;fontSize=24;strokeWidth=2;" parent="1" source="US2ZV8XT3uplZTtyfbb9-51" target="US2ZV8XT3uplZTtyfbb9-61" edge="1"><mxGeometry relative="1" as="geometry"><Array as="points"><mxPoint x="660" y="-1040"/><mxPoint x="560" y="-1040"/></Array></mxGeometry></mxCell><mxCell id="US2ZV8XT3uplZTtyfbb9-51" value="" style="shape=waypoint;sketch=0;fillStyle=solid;size=6;pointerEvents=1;points=[];fillColor=none;resizable=0;rotatable=0;perimeter=centerPerimeter;snapToPoint=1;fontSize=24;" parent="1" vertex="1"><mxGeometry x="640" y="-1110" width="40" height="40" as="geometry"/></mxCell><mxCell id="US2ZV8XT3uplZTtyfbb9-52" style="edgeStyle=orthogonalEdgeStyle;rounded=0;orthogonalLoop=1;jettySize=auto;html=1;entryX=0.5;entryY=0;entryDx=0;entryDy=0;fontSize=24;strokeWidth=2;" parent="1" source="US2ZV8XT3uplZTtyfbb9-53" target="US2ZV8XT3uplZTtyfbb9-63" edge="1"><mxGeometry relative="1" as="geometry"/></mxCell><mxCell id="US2ZV8XT3uplZTtyfbb9-53" value="" style="shape=waypoint;sketch=0;fillStyle=solid;size=6;pointerEvents=1;points=[];fillColor=none;resizable=0;rotatable=0;perimeter=centerPerimeter;snapToPoint=1;fontSize=24;" parent="1" vertex="1"><mxGeometry x="760" y="-1110" width="40" height="40" as="geometry"/></mxCell><mxCell id="US2ZV8XT3uplZTtyfbb9-54" value="nil" style="text;html=1;strokeColor=none;fillColor=none;align=center;verticalAlign=middle;whiteSpace=wrap;rounded=0;fontSize=24;" parent="1" vertex="1"><mxGeometry x="670" y="-1105" width="60" height="30" as="geometry"/></mxCell><mxCell id="US2ZV8XT3uplZTtyfbb9-55" style="edgeStyle=orthogonalEdgeStyle;rounded=0;orthogonalLoop=1;jettySize=auto;html=1;entryX=0.5;entryY=0;entryDx=0;entryDy=0;fontSize=24;strokeWidth=2;" parent="1" source="US2ZV8XT3uplZTtyfbb9-56" target="US2ZV8XT3uplZTtyfbb9-62" edge="1"><mxGeometry relative="1" as="geometry"/></mxCell><mxCell id="US2ZV8XT3uplZTtyfbb9-56" value="" style="shape=waypoint;sketch=0;fillStyle=solid;size=6;pointerEvents=1;points=[];fillColor=none;resizable=0;rotatable=0;perimeter=centerPerimeter;snapToPoint=1;fontSize=24;" parent="1" vertex="1"><mxGeometry x="720" y="-1110" width="40" height="40" as="geometry"/></mxCell><mxCell id="US2ZV8XT3uplZTtyfbb9-57" value="1" style="text;html=1;strokeColor=none;fillColor=none;align=center;verticalAlign=middle;whiteSpace=wrap;rounded=0;fontSize=24;" parent="1" vertex="1"><mxGeometry x="630" y="-1150" width="60" height="30" as="geometry"/></mxCell><mxCell id="US2ZV8XT3uplZTtyfbb9-58" value="2" style="text;html=1;strokeColor=none;fillColor=none;align=center;verticalAlign=middle;whiteSpace=wrap;rounded=0;fontSize=24;" parent="1" vertex="1"><mxGeometry x="670" y="-1150" width="60" height="30" as="geometry"/></mxCell><mxCell id="US2ZV8XT3uplZTtyfbb9-59" value="3" style="text;html=1;strokeColor=none;fillColor=none;align=center;verticalAlign=middle;whiteSpace=wrap;rounded=0;fontSize=24;" parent="1" vertex="1"><mxGeometry x="710" y="-1150" width="60" height="30" as="geometry"/></mxCell><mxCell id="US2ZV8XT3uplZTtyfbb9-60" value="4" style="text;html=1;strokeColor=none;fillColor=none;align=center;verticalAlign=middle;whiteSpace=wrap;rounded=0;fontSize=24;" parent="1" vertex="1"><mxGeometry x="750" y="-1150" width="60" height="30" as="geometry"/></mxCell><mxCell id="US2ZV8XT3uplZTtyfbb9-61" value="&lt;span style=&quot;font-size: 24px&quot;&gt;B&lt;/span&gt;" style="ellipse;whiteSpace=wrap;html=1;aspect=fixed;" parent="1" vertex="1"><mxGeometry x="520" y="-1000" width="80" height="80" as="geometry"/></mxCell><mxCell id="US2ZV8XT3uplZTtyfbb9-62" value="&lt;span style=&quot;font-size: 24px&quot;&gt;D&lt;/span&gt;" style="ellipse;whiteSpace=wrap;html=1;aspect=fixed;" parent="1" vertex="1"><mxGeometry x="670" y="-1000" width="80" height="80" as="geometry"/></mxCell><mxCell id="US2ZV8XT3uplZTtyfbb9-63" value="&lt;span style=&quot;font-size: 24px&quot;&gt;E&lt;/span&gt;" style="ellipse;whiteSpace=wrap;html=1;aspect=fixed;" parent="1" vertex="1"><mxGeometry x="790" y="-1000" width="80" height="80" as="geometry"/></mxCell><mxCell id="US2ZV8XT3uplZTtyfbb9-64" value="..." style="text;html=1;strokeColor=none;fillColor=none;align=center;verticalAlign=middle;whiteSpace=wrap;rounded=0;fontSize=24;" parent="1" vertex="1"><mxGeometry x="790" y="-1150" width="60" height="30" as="geometry"/></mxCell><mxCell id="US2ZV8XT3uplZTtyfbb9-65" value="255" style="text;html=1;strokeColor=none;fillColor=none;align=center;verticalAlign=middle;whiteSpace=wrap;rounded=0;fontSize=24;" parent="1" vertex="1"><mxGeometry x="840" y="-1150" width="60" height="30" as="geometry"/></mxCell><mxCell id="US2ZV8XT3uplZTtyfbb9-66" value="nil" style="text;html=1;strokeColor=none;fillColor=none;align=center;verticalAlign=middle;whiteSpace=wrap;rounded=0;fontSize=24;" parent="1" vertex="1"><mxGeometry x="840" y="-1105" width="60" height="30" as="geometry"/></mxCell><mxCell id="US2ZV8XT3uplZTtyfbb9-67" value="..." style="text;html=1;strokeColor=none;fillColor=none;align=center;verticalAlign=middle;whiteSpace=wrap;rounded=0;fontSize=24;" parent="1" vertex="1"><mxGeometry x="790" y="-1105" width="60" height="30" as="geometry"/></mxCell><mxCell id="US2ZV8XT3uplZTtyfbb9-68" style="rounded=0;orthogonalLoop=1;jettySize=auto;html=1;fontSize=24;startArrow=none;startFill=0;strokeWidth=1;edgeStyle=orthogonalEdgeStyle;" parent="1" source="US2ZV8XT3uplZTtyfbb9-69" edge="1"><mxGeometry relative="1" as="geometry"><mxPoint x="1280" y="-1040" as="targetPoint"/></mxGeometry></mxCell><mxCell id="US2ZV8XT3uplZTtyfbb9-69" value="&lt;span style=&quot;font-size: 24px&quot;&gt;A&lt;/span&gt;" style="ellipse;whiteSpace=wrap;html=1;aspect=fixed;" parent="1" vertex="1"><mxGeometry x="1021" y="-1175" width="80" height="80" as="geometry"/></mxCell><mxCell id="US2ZV8XT3uplZTtyfbb9-70" style="edgeStyle=orthogonalEdgeStyle;curved=1;rounded=0;orthogonalLoop=1;jettySize=auto;html=1;entryX=0;entryY=0.5;entryDx=0;entryDy=0;fontSize=24;startArrow=classic;startFill=1;strokeWidth=0;" parent="1" source="US2ZV8XT3uplZTtyfbb9-72" target="US2ZV8XT3uplZTtyfbb9-75" edge="1"><mxGeometry relative="1" as="geometry"/></mxCell><mxCell id="US2ZV8XT3uplZTtyfbb9-71" style="edgeStyle=orthogonalEdgeStyle;rounded=0;orthogonalLoop=1;jettySize=auto;html=1;fontSize=24;startArrow=none;startFill=0;strokeWidth=1;" parent="1" source="US2ZV8XT3uplZTtyfbb9-72" edge="1"><mxGeometry relative="1" as="geometry"><mxPoint x="1280" y="-880" as="targetPoint"/><Array as="points"><mxPoint x="1280" y="-940"/><mxPoint x="1280" y="-940"/></Array></mxGeometry></mxCell><mxCell id="US2ZV8XT3uplZTtyfbb9-72" value="&lt;span style=&quot;font-size: 24px&quot;&gt;B&lt;/span&gt;" style="ellipse;whiteSpace=wrap;html=1;aspect=fixed;" parent="1" vertex="1"><mxGeometry x="1241" y="-1040" width="80" height="80" as="geometry"/></mxCell><mxCell id="US2ZV8XT3uplZTtyfbb9-73" style="edgeStyle=orthogonalEdgeStyle;curved=1;rounded=0;orthogonalLoop=1;jettySize=auto;html=1;entryX=0;entryY=0.5;entryDx=0;entryDy=0;fontSize=24;startArrow=classic;startFill=1;strokeWidth=0;" parent="1" source="US2ZV8XT3uplZTtyfbb9-75" target="US2ZV8XT3uplZTtyfbb9-77" edge="1"><mxGeometry relative="1" as="geometry"/></mxCell><mxCell id="US2ZV8XT3uplZTtyfbb9-74" style="edgeStyle=orthogonalEdgeStyle;rounded=0;orthogonalLoop=1;jettySize=auto;html=1;fontSize=24;startArrow=none;startFill=0;strokeWidth=1;" parent="1" source="US2ZV8XT3uplZTtyfbb9-75" edge="1"><mxGeometry relative="1" as="geometry"><mxPoint x="1420" y="-880" as="targetPoint"/></mxGeometry></mxCell><mxCell id="US2ZV8XT3uplZTtyfbb9-75" value="&lt;span style=&quot;font-size: 24px&quot;&gt;D&lt;/span&gt;" style="ellipse;whiteSpace=wrap;html=1;aspect=fixed;" parent="1" vertex="1"><mxGeometry x="1380" y="-1040" width="80" height="80" as="geometry"/></mxCell><mxCell id="US2ZV8XT3uplZTtyfbb9-76" style="edgeStyle=orthogonalEdgeStyle;rounded=0;orthogonalLoop=1;jettySize=auto;html=1;fontSize=24;startArrow=none;startFill=0;strokeWidth=1;" parent="1" source="US2ZV8XT3uplZTtyfbb9-77" edge="1"><mxGeometry relative="1" as="geometry"><mxPoint x="1560" y="-880" as="targetPoint"/></mxGeometry></mxCell><mxCell id="US2ZV8XT3uplZTtyfbb9-77" value="&lt;span style=&quot;font-size: 24px&quot;&gt;E&lt;/span&gt;" style="ellipse;whiteSpace=wrap;html=1;aspect=fixed;" parent="1" vertex="1"><mxGeometry x="1520" y="-1040" width="80" height="80" as="geometry"/></mxCell><mxCell id="US2ZV8XT3uplZTtyfbb9-78" value="&lt;font style=&quot;font-size: 18px&quot;&gt;Связный список&lt;/font&gt;" style="text;html=1;strokeColor=none;fillColor=none;align=center;verticalAlign=middle;whiteSpace=wrap;rounded=0;fontSize=24;" parent="1" vertex="1"><mxGeometry x="1046" y="-1017" width="195" height="30" as="geometry"/></mxCell><mxCell id="US2ZV8XT3uplZTtyfbb9-79" style="edgeStyle=orthogonalEdgeStyle;rounded=0;orthogonalLoop=1;jettySize=auto;html=1;" parent="1" source="US2ZV8XT3uplZTtyfbb9-80" edge="1"><mxGeometry relative="1" as="geometry"><mxPoint x="710" y="-1395" as="targetPoint"/></mxGeometry></mxCell><mxCell id="US2ZV8XT3uplZTtyfbb9-80" value="Ключ" style="rounded=1;whiteSpace=wrap;html=1;" parent="1" vertex="1"><mxGeometry x="454" y="-1425" width="120" height="60" as="geometry"/></mxCell><mxCell id="US2ZV8XT3uplZTtyfbb9-81" value="Хеш-функция" style="text;html=1;strokeColor=none;fillColor=none;align=center;verticalAlign=middle;whiteSpace=wrap;rounded=0;" parent="1" vertex="1"><mxGeometry x="610" y="-1435" width="78" height="30" as="geometry"/></mxCell><mxCell id="US2ZV8XT3uplZTtyfbb9-82" value="&lt;span style=&quot;font-size: 12pt; line-height: 150%; font-family: &amp;quot;Times New Roman&amp;quot;, serif;&quot;&gt;11111&lt;/span&gt;" style="rounded=1;whiteSpace=wrap;html=1;" parent="1" vertex="1"><mxGeometry x="710" y="-1410" width="60" height="30" as="geometry"/></mxCell><mxCell id="US2ZV8XT3uplZTtyfbb9-83" value="" style="endArrow=classic;html=1;rounded=0;exitX=0.5;exitY=1;exitDx=0;exitDy=0;" parent="1" source="US2ZV8XT3uplZTtyfbb9-82" edge="1"><mxGeometry width="50" height="50" relative="1" as="geometry"><mxPoint x="750" y="-1318" as="sourcePoint"/><mxPoint x="740" y="-1335" as="targetPoint"/></mxGeometry></mxCell><mxCell id="US2ZV8XT3uplZTtyfbb9-84" style="edgeStyle=orthogonalEdgeStyle;rounded=0;orthogonalLoop=1;jettySize=auto;html=1;entryX=0.5;entryY=0;entryDx=0;entryDy=0;fontSize=16;strokeWidth=1;" parent="1" source="US2ZV8XT3uplZTtyfbb9-85" target="US2ZV8XT3uplZTtyfbb9-92" edge="1"><mxGeometry relative="1" as="geometry"/></mxCell><mxCell id="US2ZV8XT3uplZTtyfbb9-85" value="&lt;span style=&quot;font-size: 12pt; line-height: 150%; font-family: &amp;quot;Times New Roman&amp;quot;, serif;&quot;&gt;10000&lt;/span&gt;" style="rounded=1;whiteSpace=wrap;html=1;" parent="1" vertex="1"><mxGeometry x="770" y="-1410" width="60" height="30" as="geometry"/></mxCell><mxCell id="US2ZV8XT3uplZTtyfbb9-86" style="edgeStyle=orthogonalEdgeStyle;rounded=0;orthogonalLoop=1;jettySize=auto;html=1;entryX=0.5;entryY=0;entryDx=0;entryDy=0;fontSize=16;strokeWidth=1;" parent="1" source="US2ZV8XT3uplZTtyfbb9-87" target="US2ZV8XT3uplZTtyfbb9-93" edge="1"><mxGeometry relative="1" as="geometry"/></mxCell><mxCell id="US2ZV8XT3uplZTtyfbb9-87" value="&lt;span style=&quot;font-size: 12pt; line-height: 150%; font-family: &amp;quot;Times New Roman&amp;quot;, serif;&quot;&gt;00000&lt;/span&gt;" style="rounded=1;whiteSpace=wrap;html=1;" parent="1" vertex="1"><mxGeometry x="830" y="-1410" width="60" height="30" as="geometry"/></mxCell><mxCell id="US2ZV8XT3uplZTtyfbb9-88" style="edgeStyle=orthogonalEdgeStyle;rounded=0;orthogonalLoop=1;jettySize=auto;html=1;entryX=0.5;entryY=0;entryDx=0;entryDy=0;fontSize=16;strokeWidth=1;" parent="1" source="US2ZV8XT3uplZTtyfbb9-89" target="US2ZV8XT3uplZTtyfbb9-94" edge="1"><mxGeometry relative="1" as="geometry"/></mxCell><mxCell id="US2ZV8XT3uplZTtyfbb9-89" value="&lt;span style=&quot;font-size: 12pt; line-height: 150%; font-family: &amp;quot;Times New Roman&amp;quot;, serif;&quot;&gt;00000&lt;/span&gt;" style="rounded=1;whiteSpace=wrap;html=1;" parent="1" vertex="1"><mxGeometry x="920" y="-1410" width="60" height="30" as="geometry"/></mxCell><mxCell id="US2ZV8XT3uplZTtyfbb9-90" value="..." style="text;html=1;strokeColor=none;fillColor=none;align=center;verticalAlign=middle;whiteSpace=wrap;rounded=0;" parent="1" vertex="1"><mxGeometry x="875" y="-1410" width="60" height="30" as="geometry"/></mxCell><mxCell id="US2ZV8XT3uplZTtyfbb9-91" value="&lt;font style=&quot;font-size: 16px;&quot;&gt;31&lt;/font&gt;" style="ellipse;whiteSpace=wrap;html=1;aspect=fixed;" parent="1" vertex="1"><mxGeometry x="720" y="-1335" width="40" height="40" as="geometry"/></mxCell><mxCell id="US2ZV8XT3uplZTtyfbb9-92" value="&lt;font style=&quot;font-size: 16px;&quot;&gt;16&lt;/font&gt;" style="ellipse;whiteSpace=wrap;html=1;aspect=fixed;" parent="1" vertex="1"><mxGeometry x="780" y="-1335" width="40" height="40" as="geometry"/></mxCell><mxCell id="US2ZV8XT3uplZTtyfbb9-93" value="&lt;font style=&quot;font-size: 16px;&quot;&gt;0&lt;/font&gt;" style="ellipse;whiteSpace=wrap;html=1;aspect=fixed;" parent="1" vertex="1"><mxGeometry x="840" y="-1335" width="40" height="40" as="geometry"/></mxCell><mxCell id="US2ZV8XT3uplZTtyfbb9-94" value="&lt;font style=&quot;font-size: 16px;&quot;&gt;0&lt;/font&gt;" style="ellipse;whiteSpace=wrap;html=1;aspect=fixed;" parent="1" vertex="1"><mxGeometry x="930" y="-1335" width="40" height="40" as="geometry"/></mxCell><mxCell id="US2ZV8XT3uplZTtyfbb9-95" value="" style="shape=curlyBracket;whiteSpace=wrap;html=1;rounded=1;fontSize=16;rotation=90;" parent="1" vertex="1"><mxGeometry x="840" y="-1560" width="15" height="270" as="geometry"/></mxCell><mxCell id="US2ZV8XT3uplZTtyfbb9-96" value="&lt;font style=&quot;font-size: 12px;&quot;&gt;13 частей&amp;nbsp;&lt;/font&gt;" style="text;html=1;strokeColor=none;fillColor=none;align=center;verticalAlign=middle;whiteSpace=wrap;rounded=0;fontSize=16;" parent="1" vertex="1"><mxGeometry x="807.5" y="-1475" width="80" height="30" as="geometry"/></mxCell><mxCell id="US2ZV8XT3uplZTtyfbb9-97" style="edgeStyle=orthogonalEdgeStyle;rounded=0;orthogonalLoop=1;jettySize=auto;html=1;entryX=0;entryY=0.5;entryDx=0;entryDy=0;fontSize=12;strokeWidth=1;" parent="1" source="US2ZV8XT3uplZTtyfbb9-98" target="US2ZV8XT3uplZTtyfbb9-100" edge="1"><mxGeometry relative="1" as="geometry"/></mxCell><mxCell id="US2ZV8XT3uplZTtyfbb9-98" value="&lt;span style=&quot;font-size: 16px&quot;&gt;31&lt;/span&gt;" style="ellipse;whiteSpace=wrap;html=1;aspect=fixed;" parent="1" vertex="1"><mxGeometry x="180" y="-1793" width="40" height="40" as="geometry"/></mxCell><mxCell id="US2ZV8XT3uplZTtyfbb9-99" style="edgeStyle=orthogonalEdgeStyle;rounded=0;orthogonalLoop=1;jettySize=auto;html=1;entryX=0;entryY=0.5;entryDx=0;entryDy=0;fontSize=12;strokeWidth=1;" parent="1" source="US2ZV8XT3uplZTtyfbb9-100" target="US2ZV8XT3uplZTtyfbb9-102" edge="1"><mxGeometry relative="1" as="geometry"/></mxCell><mxCell id="US2ZV8XT3uplZTtyfbb9-100" value="&lt;font style=&quot;font-size: 16px&quot;&gt;16&lt;/font&gt;" style="ellipse;whiteSpace=wrap;html=1;aspect=fixed;" parent="1" vertex="1"><mxGeometry x="260" y="-1793" width="40" height="40" as="geometry"/></mxCell><mxCell id="US2ZV8XT3uplZTtyfbb9-101" style="edgeStyle=orthogonalEdgeStyle;rounded=0;orthogonalLoop=1;jettySize=auto;html=1;entryX=0;entryY=0.5;entryDx=0;entryDy=0;fontSize=12;strokeWidth=1;" parent="1" source="US2ZV8XT3uplZTtyfbb9-102" target="US2ZV8XT3uplZTtyfbb9-107" edge="1"><mxGeometry relative="1" as="geometry"/></mxCell><mxCell id="US2ZV8XT3uplZTtyfbb9-102" value="&lt;font style=&quot;font-size: 16px;&quot;&gt;0&lt;/font&gt;" style="ellipse;whiteSpace=wrap;html=1;aspect=fixed;" parent="1" vertex="1"><mxGeometry x="340" y="-1793" width="40" height="40" as="geometry"/></mxCell><mxCell id="US2ZV8XT3uplZTtyfbb9-103" value="&lt;font style=&quot;font-size: 16px;&quot;&gt;0&lt;/font&gt;" style="ellipse;whiteSpace=wrap;html=1;aspect=fixed;fillColor=#f8cecc;strokeColor=#b85450;" parent="1" vertex="1"><mxGeometry x="530" y="-1793" width="40" height="40" as="geometry"/></mxCell><mxCell id="US2ZV8XT3uplZTtyfbb9-104" style="edgeStyle=orthogonalEdgeStyle;rounded=0;orthogonalLoop=1;jettySize=auto;html=1;entryX=0;entryY=0.5;entryDx=0;entryDy=0;fontSize=12;strokeWidth=1;" parent="1" source="US2ZV8XT3uplZTtyfbb9-105" target="US2ZV8XT3uplZTtyfbb9-98" edge="1"><mxGeometry relative="1" as="geometry"/></mxCell><mxCell id="US2ZV8XT3uplZTtyfbb9-105" value="" style="ellipse;whiteSpace=wrap;html=1;aspect=fixed;fillColor=#d5e8d4;strokeColor=#82b366;" parent="1" vertex="1"><mxGeometry x="100" y="-1793" width="40" height="40" as="geometry"/></mxCell><mxCell id="US2ZV8XT3uplZTtyfbb9-106" style="edgeStyle=orthogonalEdgeStyle;rounded=0;orthogonalLoop=1;jettySize=auto;html=1;entryX=0;entryY=0.5;entryDx=0;entryDy=0;fontSize=12;strokeWidth=1;" parent="1" source="US2ZV8XT3uplZTtyfbb9-107" target="US2ZV8XT3uplZTtyfbb9-103" edge="1"><mxGeometry relative="1" as="geometry"/></mxCell><mxCell id="US2ZV8XT3uplZTtyfbb9-107" value="&lt;font style=&quot;font-size: 19px;&quot;&gt;...&lt;/font&gt;" style="text;html=1;strokeColor=none;fillColor=none;align=center;verticalAlign=middle;whiteSpace=wrap;rounded=0;fontSize=12;" parent="1" vertex="1"><mxGeometry x="430" y="-1788" width="60" height="30" as="geometry"/></mxCell><mxCell id="US2ZV8XT3uplZTtyfbb9-108" style="edgeStyle=orthogonalEdgeStyle;rounded=0;orthogonalLoop=1;jettySize=auto;html=1;entryX=0;entryY=0.5;entryDx=0;entryDy=0;fontSize=12;strokeWidth=1;" parent="1" source="US2ZV8XT3uplZTtyfbb9-109" target="US2ZV8XT3uplZTtyfbb9-110" edge="1"><mxGeometry relative="1" as="geometry"/></mxCell><mxCell id="US2ZV8XT3uplZTtyfbb9-109" value="&lt;font style=&quot;font-size: 16px;&quot;&gt;1&lt;/font&gt;" style="ellipse;whiteSpace=wrap;html=1;aspect=fixed;" parent="1" vertex="1"><mxGeometry x="180" y="-1660" width="40" height="40" as="geometry"/></mxCell><mxCell id="US2ZV8XT3uplZTtyfbb9-110" value="&lt;font style=&quot;font-size: 16px;&quot;&gt;31&lt;/font&gt;" style="ellipse;whiteSpace=wrap;html=1;aspect=fixed;fillColor=#f8cecc;strokeColor=#b85450;" parent="1" vertex="1"><mxGeometry x="260" y="-1660" width="40" height="40" as="geometry"/></mxCell><mxCell id="US2ZV8XT3uplZTtyfbb9-111" style="edgeStyle=orthogonalEdgeStyle;rounded=0;orthogonalLoop=1;jettySize=auto;html=1;entryX=0;entryY=0.5;entryDx=0;entryDy=0;fontSize=12;strokeWidth=1;" parent="1" source="US2ZV8XT3uplZTtyfbb9-112" target="US2ZV8XT3uplZTtyfbb9-109" edge="1"><mxGeometry relative="1" as="geometry"/></mxCell><mxCell id="US2ZV8XT3uplZTtyfbb9-112" value="" style="ellipse;whiteSpace=wrap;html=1;aspect=fixed;fillColor=#d5e8d4;strokeColor=#82b366;" parent="1" vertex="1"><mxGeometry x="100" y="-1660" width="40" height="40" as="geometry"/></mxCell><mxCell id="US2ZV8XT3uplZTtyfbb9-113" style="edgeStyle=orthogonalEdgeStyle;rounded=0;orthogonalLoop=1;jettySize=auto;html=1;entryX=0.5;entryY=0;entryDx=0;entryDy=0;fontSize=19;strokeWidth=1;" parent="1" source="US2ZV8XT3uplZTtyfbb9-114" target="US2ZV8XT3uplZTtyfbb9-116" edge="1"><mxGeometry relative="1" as="geometry"/></mxCell><mxCell id="US2ZV8XT3uplZTtyfbb9-114" value="" style="ellipse;whiteSpace=wrap;html=1;aspect=fixed;fillColor=#d5e8d4;strokeColor=#82b366;" parent="1" vertex="1"><mxGeometry x="340" y="-2220" width="40" height="40" as="geometry"/></mxCell><mxCell id="US2ZV8XT3uplZTtyfbb9-115" style="edgeStyle=orthogonalEdgeStyle;rounded=0;orthogonalLoop=1;jettySize=auto;html=1;entryX=0.96;entryY=0.7;entryDx=0;entryDy=0;entryPerimeter=0;fontSize=14;strokeWidth=1;curved=1;endArrow=none;endFill=0;dashed=1;" parent="1" source="US2ZV8XT3uplZTtyfbb9-116" target="US2ZV8XT3uplZTtyfbb9-117" edge="1"><mxGeometry relative="1" as="geometry"/></mxCell><mxCell id="US2ZV8XT3uplZTtyfbb9-116" value="&lt;font style=&quot;font-size: 16px&quot;&gt;16&lt;/font&gt;" style="ellipse;whiteSpace=wrap;html=1;aspect=fixed;fillColor=#f8cecc;strokeColor=#b85450;" parent="1" vertex="1"><mxGeometry x="340" y="-2140" width="40" height="40" as="geometry"/></mxCell><mxCell id="US2ZV8XT3uplZTtyfbb9-117" value="&lt;font style=&quot;font-size: 14px;&quot;&gt;(2172, value1)&lt;br&gt;&lt;/font&gt;" style="ellipse;shape=cloud;whiteSpace=wrap;html=1;fontSize=19;" parent="1" vertex="1"><mxGeometry x="170" y="-2190" width="145" height="50" as="geometry"/></mxCell><mxCell id="US2ZV8XT3uplZTtyfbb9-118" value="" style="ellipse;whiteSpace=wrap;html=1;aspect=fixed;fillColor=#d5e8d4;strokeColor=#82b366;" parent="1" vertex="1"><mxGeometry x="500" y="-2220" width="40" height="40" as="geometry"/></mxCell><mxCell id="US2ZV8XT3uplZTtyfbb9-119" style="edgeStyle=orthogonalEdgeStyle;rounded=0;orthogonalLoop=1;jettySize=auto;html=1;entryX=0.5;entryY=0;entryDx=0;entryDy=0;fontSize=19;strokeWidth=1;" parent="1" source="US2ZV8XT3uplZTtyfbb9-120" target="US2ZV8XT3uplZTtyfbb9-124" edge="1"><mxGeometry relative="1" as="geometry"/></mxCell><mxCell id="US2ZV8XT3uplZTtyfbb9-120" value="" style="ellipse;whiteSpace=wrap;html=1;aspect=fixed;fillColor=#d5e8d4;strokeColor=#82b366;" parent="1" vertex="1"><mxGeometry x="780" y="-2250" width="40" height="40" as="geometry"/></mxCell><mxCell id="US2ZV8XT3uplZTtyfbb9-121" style="edgeStyle=orthogonalEdgeStyle;rounded=0;orthogonalLoop=1;jettySize=auto;html=1;entryX=0.96;entryY=0.7;entryDx=0;entryDy=0;entryPerimeter=0;fontSize=14;strokeWidth=1;curved=1;endArrow=none;endFill=0;dashed=1;exitX=0.5;exitY=1;exitDx=0;exitDy=0;" parent="1" source="US2ZV8XT3uplZTtyfbb9-126" target="US2ZV8XT3uplZTtyfbb9-125" edge="1"><mxGeometry relative="1" as="geometry"><Array as="points"><mxPoint x="760" y="-2020"/><mxPoint x="730" y="-2020"/><mxPoint x="730" y="-2030"/><mxPoint x="699" y="-2030"/><mxPoint x="699" y="-2045"/></Array></mxGeometry></mxCell><mxCell id="US2ZV8XT3uplZTtyfbb9-122" style="edgeStyle=orthogonalEdgeStyle;rounded=0;orthogonalLoop=1;jettySize=auto;html=1;entryX=0.5;entryY=0;entryDx=0;entryDy=0;fontSize=14;startArrow=none;startFill=0;endArrow=classic;endFill=1;strokeWidth=1;" parent="1" source="US2ZV8XT3uplZTtyfbb9-124" target="US2ZV8XT3uplZTtyfbb9-126" edge="1"><mxGeometry relative="1" as="geometry"/></mxCell><mxCell id="US2ZV8XT3uplZTtyfbb9-123" style="edgeStyle=orthogonalEdgeStyle;rounded=0;orthogonalLoop=1;jettySize=auto;html=1;fontSize=14;startArrow=none;startFill=0;endArrow=classic;endFill=1;strokeWidth=1;" parent="1" source="US2ZV8XT3uplZTtyfbb9-124" edge="1"><mxGeometry relative="1" as="geometry"><mxPoint x="840" y="-2080" as="targetPoint"/></mxGeometry></mxCell><mxCell id="US2ZV8XT3uplZTtyfbb9-124" value="&lt;font style=&quot;font-size: 16px&quot;&gt;31&lt;/font&gt;" style="ellipse;whiteSpace=wrap;html=1;aspect=fixed;" parent="1" vertex="1"><mxGeometry x="780" y="-2170" width="40" height="40" as="geometry"/></mxCell><mxCell id="US2ZV8XT3uplZTtyfbb9-125" value="&lt;font style=&quot;font-size: 14px;&quot;&gt;(2172, value1)&lt;br&gt;&lt;/font&gt;" style="ellipse;shape=cloud;whiteSpace=wrap;html=1;fontSize=19;" parent="1" vertex="1"><mxGeometry x="567.5" y="-2090" width="145" height="50" as="geometry"/></mxCell><mxCell id="US2ZV8XT3uplZTtyfbb9-126" value="&lt;font style=&quot;font-size: 14px&quot;&gt;16&lt;/font&gt;" style="ellipse;whiteSpace=wrap;html=1;aspect=fixed;fillColor=#f8cecc;strokeColor=#b85450;" parent="1" vertex="1"><mxGeometry x="740" y="-2080" width="40" height="40" as="geometry"/></mxCell><mxCell id="US2ZV8XT3uplZTtyfbb9-127" style="edgeStyle=orthogonalEdgeStyle;rounded=0;orthogonalLoop=1;jettySize=auto;html=1;entryX=0.31;entryY=0.8;entryDx=0;entryDy=0;entryPerimeter=0;fontSize=14;startArrow=none;startFill=0;endArrow=none;endFill=0;strokeWidth=1;elbow=vertical;curved=1;dashed=1;" parent="1" source="US2ZV8XT3uplZTtyfbb9-128" target="US2ZV8XT3uplZTtyfbb9-129" edge="1"><mxGeometry relative="1" as="geometry"><Array as="points"><mxPoint x="880" y="-2060"/><mxPoint x="880" y="-2030"/></Array></mxGeometry></mxCell><mxCell id="US2ZV8XT3uplZTtyfbb9-128" value="&lt;font style=&quot;font-size: 16px&quot;&gt;1&lt;/font&gt;" style="ellipse;whiteSpace=wrap;html=1;aspect=fixed;fillColor=#f8cecc;strokeColor=#b85450;" parent="1" vertex="1"><mxGeometry x="820" y="-2080" width="40" height="40" as="geometry"/></mxCell><mxCell id="US2ZV8XT3uplZTtyfbb9-129" value="&lt;font style=&quot;font-size: 14px&quot;&gt;(63, value2)&lt;br&gt;&lt;/font&gt;" style="ellipse;shape=cloud;whiteSpace=wrap;html=1;fontSize=19;" parent="1" vertex="1"><mxGeometry x="887.5" y="-2100" width="145" height="50" as="geometry"/></mxCell><mxCell id="US2ZV8XT3uplZTtyfbb9-130" style="edgeStyle=orthogonalEdgeStyle;rounded=0;orthogonalLoop=1;jettySize=auto;html=1;entryX=0;entryY=0.5;entryDx=0;entryDy=0;fontSize=24;strokeWidth=0;curved=1;startArrow=classic;startFill=1;exitX=1;exitY=0.5;exitDx=0;exitDy=0;" parent="1" source="US2ZV8XT3uplZTtyfbb9-132" target="US2ZV8XT3uplZTtyfbb9-133" edge="1"><mxGeometry relative="1" as="geometry"/></mxCell><mxCell id="US2ZV8XT3uplZTtyfbb9-131" style="edgeStyle=orthogonalEdgeStyle;rounded=0;orthogonalLoop=1;jettySize=auto;html=1;entryX=0;entryY=0.5;entryDx=0;entryDy=0;fontSize=16;curved=1;dashed=1;strokeWidth=0;" parent="1" source="US2ZV8XT3uplZTtyfbb9-132" target="US2ZV8XT3uplZTtyfbb9-146" edge="1"><mxGeometry relative="1" as="geometry"/></mxCell><mxCell id="US2ZV8XT3uplZTtyfbb9-132" value="&lt;span style=&quot;font-size: 24px;&quot;&gt;P&lt;/span&gt;" style="ellipse;whiteSpace=wrap;html=1;aspect=fixed;" parent="1" vertex="1"><mxGeometry x="1186" y="-1525" width="55" height="55" as="geometry"/></mxCell><mxCell id="US2ZV8XT3uplZTtyfbb9-133" value="" style="rounded=0;whiteSpace=wrap;html=1;fontSize=24;" parent="1" vertex="1"><mxGeometry x="1321" y="-1470" width="119" height="35" as="geometry"/></mxCell><mxCell id="US2ZV8XT3uplZTtyfbb9-134" value="&lt;font style=&quot;font-size: 16px;&quot;&gt;0&lt;/font&gt;" style="text;html=1;strokeColor=none;fillColor=none;align=center;verticalAlign=middle;whiteSpace=wrap;rounded=0;fontSize=24;" parent="1" vertex="1"><mxGeometry x="1313" y="-1505" width="60" height="30" as="geometry"/></mxCell><mxCell id="US2ZV8XT3uplZTtyfbb9-135" style="edgeStyle=orthogonalEdgeStyle;rounded=0;orthogonalLoop=1;jettySize=auto;html=1;" parent="1" source="US2ZV8XT3uplZTtyfbb9-136" target="US2ZV8XT3uplZTtyfbb9-139" edge="1"><mxGeometry relative="1" as="geometry"><Array as="points"><mxPoint x="1341" y="-1390"/><mxPoint x="1286" y="-1390"/></Array></mxGeometry></mxCell><mxCell id="US2ZV8XT3uplZTtyfbb9-136" value="" style="shape=waypoint;sketch=0;fillStyle=solid;size=6;pointerEvents=1;points=[];fillColor=none;resizable=0;rotatable=0;perimeter=centerPerimeter;snapToPoint=1;fontSize=24;" parent="1" vertex="1"><mxGeometry x="1321" y="-1472.5" width="40" height="40" as="geometry"/></mxCell><mxCell id="US2ZV8XT3uplZTtyfbb9-137" value="&lt;font style=&quot;font-size: 16px;&quot;&gt;1&lt;/font&gt;" style="text;html=1;strokeColor=none;fillColor=none;align=center;verticalAlign=middle;whiteSpace=wrap;rounded=0;fontSize=24;" parent="1" vertex="1"><mxGeometry x="1346.5" y="-1505" width="60" height="30" as="geometry"/></mxCell><mxCell id="US2ZV8XT3uplZTtyfbb9-138" value="&lt;font style=&quot;font-size: 16px;&quot;&gt;2&lt;/font&gt;" style="text;html=1;strokeColor=none;fillColor=none;align=center;verticalAlign=middle;whiteSpace=wrap;rounded=0;fontSize=24;" parent="1" vertex="1"><mxGeometry x="1388" y="-1505" width="60" height="30" as="geometry"/></mxCell><mxCell id="US2ZV8XT3uplZTtyfbb9-139" value="&lt;font style=&quot;font-size: 16px;&quot;&gt;0&lt;/font&gt;" style="ellipse;whiteSpace=wrap;html=1;aspect=fixed;" parent="1" vertex="1"><mxGeometry x="1258" y="-1350" width="55" height="55" as="geometry"/></mxCell><mxCell id="US2ZV8XT3uplZTtyfbb9-140" value="&lt;font style=&quot;font-size: 16px;&quot;&gt;1&lt;/font&gt;" style="ellipse;whiteSpace=wrap;html=1;aspect=fixed;" parent="1" vertex="1"><mxGeometry x="1353.5" y="-1350" width="55" height="55" as="geometry"/></mxCell><mxCell id="US2ZV8XT3uplZTtyfbb9-141" value="&lt;font style=&quot;font-size: 16px;&quot;&gt;3&lt;/font&gt;" style="ellipse;whiteSpace=wrap;html=1;aspect=fixed;" parent="1" vertex="1"><mxGeometry x="1450" y="-1350" width="55" height="55" as="geometry"/></mxCell><mxCell id="US2ZV8XT3uplZTtyfbb9-142" style="edgeStyle=orthogonalEdgeStyle;rounded=0;orthogonalLoop=1;jettySize=auto;html=1;" parent="1" source="US2ZV8XT3uplZTtyfbb9-143" target="US2ZV8XT3uplZTtyfbb9-140" edge="1"><mxGeometry relative="1" as="geometry"/></mxCell><mxCell id="US2ZV8XT3uplZTtyfbb9-143" value="" style="shape=waypoint;sketch=0;fillStyle=solid;size=6;pointerEvents=1;points=[];fillColor=none;resizable=0;rotatable=0;perimeter=centerPerimeter;snapToPoint=1;fontSize=24;" parent="1" vertex="1"><mxGeometry x="1361" y="-1472.5" width="40" height="40" as="geometry"/></mxCell><mxCell id="US2ZV8XT3uplZTtyfbb9-144" style="edgeStyle=orthogonalEdgeStyle;rounded=0;orthogonalLoop=1;jettySize=auto;html=1;" parent="1" source="US2ZV8XT3uplZTtyfbb9-145" target="US2ZV8XT3uplZTtyfbb9-141" edge="1"><mxGeometry relative="1" as="geometry"><Array as="points"><mxPoint x="1420" y="-1390"/><mxPoint x="1478" y="-1390"/></Array></mxGeometry></mxCell><mxCell id="US2ZV8XT3uplZTtyfbb9-145" value="" style="shape=waypoint;sketch=0;fillStyle=solid;size=6;pointerEvents=1;points=[];fillColor=none;resizable=0;rotatable=0;perimeter=centerPerimeter;snapToPoint=1;fontSize=24;" parent="1" vertex="1"><mxGeometry x="1400" y="-1472.5" width="40" height="40" as="geometry"/></mxCell><mxCell id="US2ZV8XT3uplZTtyfbb9-146" value="" style="rounded=0;whiteSpace=wrap;html=1;" parent="1" vertex="1"><mxGeometry x="1313" y="-1620" width="420" height="35" as="geometry"/></mxCell><mxCell id="US2ZV8XT3uplZTtyfbb9-147" value="&lt;font style=&quot;font-size: 9px;&quot;&gt;bitmap&lt;/font&gt;" style="text;html=1;strokeColor=none;fillColor=none;align=center;verticalAlign=middle;whiteSpace=wrap;rounded=0;fontSize=16;" parent="1" vertex="1"><mxGeometry x="1230" y="-1585" width="60" height="30" as="geometry"/></mxCell><mxCell id="US2ZV8XT3uplZTtyfbb9-148" value="&lt;font style=&quot;font-size: 9px;&quot;&gt;array&lt;/font&gt;" style="text;html=1;strokeColor=none;fillColor=none;align=center;verticalAlign=middle;whiteSpace=wrap;rounded=0;fontSize=16;" parent="1" vertex="1"><mxGeometry x="1230" y="-1480" width="60" height="30" as="geometry"/></mxCell><mxCell id="US2ZV8XT3uplZTtyfbb9-149" style="edgeStyle=orthogonalEdgeStyle;rounded=0;orthogonalLoop=1;jettySize=auto;html=1;" parent="1" source="US2ZV8XT3uplZTtyfbb9-150" edge="1"><mxGeometry relative="1" as="geometry"><mxPoint x="1344" y="-1520" as="targetPoint"/></mxGeometry></mxCell><mxCell id="US2ZV8XT3uplZTtyfbb9-150" value="&lt;font style=&quot;font-size: 18px;&quot;&gt;1&lt;/font&gt;" style="text;html=1;strokeColor=none;fillColor=none;align=center;verticalAlign=middle;whiteSpace=wrap;rounded=0;fontSize=9;" parent="1" vertex="1"><mxGeometry x="1314" y="-1617.5" width="60" height="30" as="geometry"/></mxCell><mxCell id="US2ZV8XT3uplZTtyfbb9-151" style="edgeStyle=orthogonalEdgeStyle;rounded=0;orthogonalLoop=1;jettySize=auto;html=1;" parent="1" source="US2ZV8XT3uplZTtyfbb9-152" edge="1"><mxGeometry relative="1" as="geometry"><mxPoint x="1380" y="-1520" as="targetPoint"/></mxGeometry></mxCell><mxCell id="US2ZV8XT3uplZTtyfbb9-152" value="&lt;font style=&quot;font-size: 18px;&quot;&gt;1&lt;/font&gt;" style="text;html=1;strokeColor=none;fillColor=none;align=center;verticalAlign=middle;whiteSpace=wrap;rounded=0;fontSize=9;" parent="1" vertex="1"><mxGeometry x="1373" y="-1617.5" width="60" height="30" as="geometry"/></mxCell><mxCell id="US2ZV8XT3uplZTtyfbb9-153" value="&lt;font style=&quot;font-size: 18px;&quot;&gt;0&lt;/font&gt;" style="text;html=1;strokeColor=none;fillColor=none;align=center;verticalAlign=middle;whiteSpace=wrap;rounded=0;fontSize=9;" parent="1" vertex="1"><mxGeometry x="1433" y="-1617.5" width="60" height="30" as="geometry"/></mxCell><mxCell id="US2ZV8XT3uplZTtyfbb9-154" value="&lt;font style=&quot;font-size: 18px;&quot;&gt;0&lt;/font&gt;" style="text;html=1;strokeColor=none;fillColor=none;align=center;verticalAlign=middle;whiteSpace=wrap;rounded=0;fontSize=9;" parent="1" vertex="1"><mxGeometry x="1553" y="-1617.5" width="60" height="30" as="geometry"/></mxCell><mxCell id="US2ZV8XT3uplZTtyfbb9-155" style="edgeStyle=orthogonalEdgeStyle;rounded=0;orthogonalLoop=1;jettySize=auto;html=1;" parent="1" source="US2ZV8XT3uplZTtyfbb9-156" edge="1"><mxGeometry relative="1" as="geometry"><mxPoint x="1420" y="-1520" as="targetPoint"/><Array as="points"><mxPoint x="1523" y="-1560"/><mxPoint x="1420" y="-1560"/></Array></mxGeometry></mxCell><mxCell id="US2ZV8XT3uplZTtyfbb9-156" value="&lt;font style=&quot;font-size: 18px;&quot;&gt;1&lt;/font&gt;" style="text;html=1;strokeColor=none;fillColor=none;align=center;verticalAlign=middle;whiteSpace=wrap;rounded=0;fontSize=9;" parent="1" vertex="1"><mxGeometry x="1493" y="-1617.5" width="60" height="30" as="geometry"/></mxCell><mxCell id="US2ZV8XT3uplZTtyfbb9-157" value="&lt;font style=&quot;font-size: 18px;&quot;&gt;0&lt;/font&gt;" style="text;html=1;strokeColor=none;fillColor=none;align=center;verticalAlign=middle;whiteSpace=wrap;rounded=0;fontSize=9;" parent="1" vertex="1"><mxGeometry x="1663" y="-1615" width="60" height="30" as="geometry"/></mxCell><mxCell id="US2ZV8XT3uplZTtyfbb9-158" value="&lt;font style=&quot;font-size: 18px;&quot;&gt;....&lt;/font&gt;" style="text;html=1;strokeColor=none;fillColor=none;align=center;verticalAlign=middle;whiteSpace=wrap;rounded=0;fontSize=9;" parent="1" vertex="1"><mxGeometry x="1613" y="-1617.5" width="60" height="30" as="geometry"/></mxCell><mxCell id="US2ZV8XT3uplZTtyfbb9-159" value="&lt;font style=&quot;font-size: 13px;&quot;&gt;0&lt;/font&gt;" style="text;html=1;strokeColor=none;fillColor=none;align=center;verticalAlign=middle;whiteSpace=wrap;rounded=0;fontSize=9;" parent="1" vertex="1"><mxGeometry x="1314" y="-1660" width="60" height="30" as="geometry"/></mxCell><mxCell id="US2ZV8XT3uplZTtyfbb9-160" value="&lt;font style=&quot;font-size: 13px;&quot;&gt;1&lt;/font&gt;" style="text;html=1;strokeColor=none;fillColor=none;align=center;verticalAlign=middle;whiteSpace=wrap;rounded=0;fontSize=9;" parent="1" vertex="1"><mxGeometry x="1373" y="-1660" width="60" height="30" as="geometry"/></mxCell><mxCell id="US2ZV8XT3uplZTtyfbb9-161" value="&lt;font style=&quot;font-size: 13px;&quot;&gt;2&lt;/font&gt;" style="text;html=1;strokeColor=none;fillColor=none;align=center;verticalAlign=middle;whiteSpace=wrap;rounded=0;fontSize=9;" parent="1" vertex="1"><mxGeometry x="1433" y="-1660" width="60" height="30" as="geometry"/></mxCell><mxCell id="US2ZV8XT3uplZTtyfbb9-162" value="&lt;font style=&quot;font-size: 13px;&quot;&gt;3&lt;/font&gt;" style="text;html=1;strokeColor=none;fillColor=none;align=center;verticalAlign=middle;whiteSpace=wrap;rounded=0;fontSize=9;" parent="1" vertex="1"><mxGeometry x="1493" y="-1660" width="60" height="30" as="geometry"/></mxCell><mxCell id="US2ZV8XT3uplZTtyfbb9-163" value="&lt;font style=&quot;font-size: 13px;&quot;&gt;4&lt;/font&gt;" style="text;html=1;strokeColor=none;fillColor=none;align=center;verticalAlign=middle;whiteSpace=wrap;rounded=0;fontSize=9;" parent="1" vertex="1"><mxGeometry x="1553" y="-1660" width="60" height="30" as="geometry"/></mxCell><mxCell id="US2ZV8XT3uplZTtyfbb9-164" value="&lt;font style=&quot;font-size: 13px;&quot;&gt;31&lt;/font&gt;" style="text;html=1;strokeColor=none;fillColor=none;align=center;verticalAlign=middle;whiteSpace=wrap;rounded=0;fontSize=9;" parent="1" vertex="1"><mxGeometry x="1663" y="-1660" width="60" height="30" as="geometry"/></mxCell><mxCell id="3nyyxwVk8VfznhY3VDSI-1" value="&lt;b&gt;&lt;i&gt;NODE&lt;/i&gt;&lt;/b&gt;" style="html=1;" parent="1" vertex="1"><mxGeometry x="-218" y="-2203" width="110" height="30" as="geometry"/></mxCell><mxCell id="3nyyxwVk8VfznhY3VDSI-12" style="edgeStyle=none;rounded=0;orthogonalLoop=1;jettySize=auto;html=1;entryX=0.5;entryY=1;entryDx=0;entryDy=0;endArrow=block;endFill=0;" parent="1" source="3nyyxwVk8VfznhY3VDSI-4" target="3nyyxwVk8VfznhY3VDSI-1" edge="1"><mxGeometry relative="1" as="geometry"/></mxCell><mxCell id="3nyyxwVk8VfznhY3VDSI-4" value="INODE" style="html=1;" parent="1" vertex="1"><mxGeometry x="-368" y="-2131" width="110" height="27" as="geometry"/></mxCell><mxCell id="3nyyxwVk8VfznhY3VDSI-10" style="edgeStyle=orthogonalEdgeStyle;rounded=0;orthogonalLoop=1;jettySize=auto;html=1;endArrow=block;endFill=0;" parent="1" source="3nyyxwVk8VfznhY3VDSI-5" target="3nyyxwVk8VfznhY3VDSI-1" edge="1"><mxGeometry relative="1" as="geometry"/></mxCell><mxCell id="3nyyxwVk8VfznhY3VDSI-5" value="CNODE" style="html=1;" parent="1" vertex="1"><mxGeometry x="-218" y="-2131" width="110" height="27" as="geometry"/></mxCell><mxCell id="3nyyxwVk8VfznhY3VDSI-11" style="rounded=0;orthogonalLoop=1;jettySize=auto;html=1;entryX=0.5;entryY=1;entryDx=0;entryDy=0;endArrow=block;endFill=0;" parent="1" source="3nyyxwVk8VfznhY3VDSI-6" target="3nyyxwVk8VfznhY3VDSI-1" edge="1"><mxGeometry relative="1" as="geometry"/></mxCell><mxCell id="3nyyxwVk8VfznhY3VDSI-6" value="SNODE" style="html=1;" parent="1" vertex="1"><mxGeometry x="-68" y="-2131" width="110" height="27" as="geometry"/></mxCell><mxCell id="3nyyxwVk8VfznhY3VDSI-20" style="edgeStyle=none;rounded=0;orthogonalLoop=1;jettySize=auto;html=1;endArrow=classic;endFill=1;" parent="1" source="3nyyxwVk8VfznhY3VDSI-13" target="3nyyxwVk8VfznhY3VDSI-17" edge="1"><mxGeometry relative="1" as="geometry"/></mxCell><mxCell id="3nyyxwVk8VfznhY3VDSI-13" value="" style="ellipse;whiteSpace=wrap;html=1;aspect=fixed;fillColor=#d5e8d4;strokeColor=#82b366;" parent="1" vertex="1"><mxGeometry x="1468" y="-2387" width="40" height="40" as="geometry"/></mxCell><mxCell id="3nyyxwVk8VfznhY3VDSI-15" value="" style="rounded=0;whiteSpace=wrap;html=1;fontSize=24;" parent="1" vertex="1"><mxGeometry x="1533" y="-2289" width="89" height="41" as="geometry"/></mxCell><mxCell id="3nyyxwVk8VfznhY3VDSI-16" style="edgeStyle=none;rounded=0;orthogonalLoop=1;jettySize=auto;html=1;entryX=0;entryY=1;entryDx=0;entryDy=0;endArrow=block;endFill=0;" parent="1" source="3nyyxwVk8VfznhY3VDSI-13" target="3nyyxwVk8VfznhY3VDSI-13" edge="1"><mxGeometry relative="1" as="geometry"/></mxCell><mxCell id="3nyyxwVk8VfznhY3VDSI-48" style="edgeStyle=none;rounded=0;orthogonalLoop=1;jettySize=auto;html=1;endArrow=classic;endFill=1;dashed=1;startArrow=classic;startFill=1;strokeWidth=0;" parent="1" source="3nyyxwVk8VfznhY3VDSI-17" edge="1"><mxGeometry relative="1" as="geometry"><mxPoint x="1531.8182525634766" y="-2268" as="targetPoint"/></mxGeometry></mxCell><mxCell id="3nyyxwVk8VfznhY3VDSI-17" value="&lt;font style=&quot;font-size: 16px;&quot;&gt;С1&lt;/font&gt;" style="ellipse;whiteSpace=wrap;html=1;aspect=fixed;" parent="1" vertex="1"><mxGeometry x="1468" y="-2288" width="40" height="40" as="geometry"/></mxCell><mxCell id="3nyyxwVk8VfznhY3VDSI-21" value="." style="text;html=1;strokeColor=none;fillColor=none;align=center;verticalAlign=middle;whiteSpace=wrap;rounded=0;" parent="1" vertex="1"><mxGeometry x="1546" y="-2284" width="60" height="30" as="geometry"/></mxCell><mxCell id="3nyyxwVk8VfznhY3VDSI-34" style="edgeStyle=none;rounded=0;orthogonalLoop=1;jettySize=auto;html=1;endArrow=classic;endFill=1;entryX=0.5;entryY=0;entryDx=0;entryDy=0;" parent="1" source="3nyyxwVk8VfznhY3VDSI-22" target="3nyyxwVk8VfznhY3VDSI-27" edge="1"><mxGeometry relative="1" as="geometry"><mxPoint x="1582.7273712158203" y="-2222.727264404297" as="targetPoint"/></mxGeometry></mxCell><mxCell id="3nyyxwVk8VfznhY3VDSI-22" value="" style="shape=waypoint;sketch=0;fillStyle=solid;size=6;pointerEvents=1;points=[];fillColor=none;resizable=0;rotatable=0;perimeter=centerPerimeter;snapToPoint=1;fontSize=24;" parent="1" vertex="1"><mxGeometry x="1536" y="-2288.5" width="40" height="40" as="geometry"/></mxCell><mxCell id="3nyyxwVk8VfznhY3VDSI-33" style="edgeStyle=none;rounded=0;orthogonalLoop=1;jettySize=auto;html=1;endArrow=classic;endFill=1;" parent="1" source="3nyyxwVk8VfznhY3VDSI-23" edge="1"><mxGeometry relative="1" as="geometry"><mxPoint x="1642" y="-2215" as="targetPoint"/></mxGeometry></mxCell><mxCell id="3nyyxwVk8VfznhY3VDSI-23" value="" style="shape=waypoint;sketch=0;fillStyle=solid;size=6;pointerEvents=1;points=[];fillColor=none;resizable=0;rotatable=0;perimeter=centerPerimeter;snapToPoint=1;fontSize=24;" parent="1" vertex="1"><mxGeometry x="1576" y="-2289" width="40" height="40" as="geometry"/></mxCell><mxCell id="3nyyxwVk8VfznhY3VDSI-24" style="edgeStyle=none;rounded=0;orthogonalLoop=1;jettySize=auto;html=1;exitX=1;exitY=0;exitDx=0;exitDy=0;endArrow=classic;endFill=1;" parent="1" source="3nyyxwVk8VfznhY3VDSI-15" target="3nyyxwVk8VfznhY3VDSI-15" edge="1"><mxGeometry relative="1" as="geometry"/></mxCell><mxCell id="3nyyxwVk8VfznhY3VDSI-26" value="" style="rounded=0;whiteSpace=wrap;html=1;fontSize=24;" parent="1" vertex="1"><mxGeometry x="1533" y="-2170.5" width="89" height="41" as="geometry"/></mxCell><mxCell id="3nyyxwVk8VfznhY3VDSI-49" style="edgeStyle=none;rounded=0;orthogonalLoop=1;jettySize=auto;html=1;endArrow=classic;endFill=1;strokeWidth=0;startArrow=classic;startFill=1;dashed=1;" parent="1" source="3nyyxwVk8VfznhY3VDSI-27" edge="1"><mxGeometry relative="1" as="geometry"><mxPoint x="1534.5" y="-2149" as="targetPoint"/></mxGeometry></mxCell><mxCell id="3nyyxwVk8VfznhY3VDSI-27" value="&lt;font style=&quot;font-size: 16px;&quot;&gt;С2&lt;/font&gt;" style="ellipse;whiteSpace=wrap;html=1;aspect=fixed;" parent="1" vertex="1"><mxGeometry x="1468" y="-2169.5" width="40" height="40" as="geometry"/></mxCell><mxCell id="3nyyxwVk8VfznhY3VDSI-28" value="." style="text;html=1;strokeColor=none;fillColor=none;align=center;verticalAlign=middle;whiteSpace=wrap;rounded=0;" parent="1" vertex="1"><mxGeometry x="1546" y="-2165.5" width="60" height="30" as="geometry"/></mxCell><mxCell id="3nyyxwVk8VfznhY3VDSI-45" style="edgeStyle=none;rounded=0;orthogonalLoop=1;jettySize=auto;html=1;entryX=0.5;entryY=0;entryDx=0;entryDy=0;endArrow=classic;endFill=1;" parent="1" source="3nyyxwVk8VfznhY3VDSI-29" target="3nyyxwVk8VfznhY3VDSI-36" edge="1"><mxGeometry relative="1" as="geometry"/></mxCell><mxCell id="3nyyxwVk8VfznhY3VDSI-29" value="" style="shape=waypoint;sketch=0;fillStyle=solid;size=6;pointerEvents=1;points=[];fillColor=none;resizable=0;rotatable=0;perimeter=centerPerimeter;snapToPoint=1;fontSize=24;" parent="1" vertex="1"><mxGeometry x="1536" y="-2169.5" width="40" height="40" as="geometry"/></mxCell><mxCell id="3nyyxwVk8VfznhY3VDSI-44" style="edgeStyle=none;rounded=0;orthogonalLoop=1;jettySize=auto;html=1;endArrow=classic;endFill=1;" parent="1" source="3nyyxwVk8VfznhY3VDSI-30" edge="1"><mxGeometry relative="1" as="geometry"><mxPoint x="1645.8637237548828" y="-2102.9090881347656" as="targetPoint"/></mxGeometry></mxCell><mxCell id="3nyyxwVk8VfznhY3VDSI-30" value="" style="shape=waypoint;sketch=0;fillStyle=solid;size=6;pointerEvents=1;points=[];fillColor=none;resizable=0;rotatable=0;perimeter=centerPerimeter;snapToPoint=1;fontSize=24;" parent="1" vertex="1"><mxGeometry x="1576" y="-2170.5" width="40" height="40" as="geometry"/></mxCell><mxCell id="3nyyxwVk8VfznhY3VDSI-31" style="edgeStyle=none;rounded=0;orthogonalLoop=1;jettySize=auto;html=1;exitX=1;exitY=0;exitDx=0;exitDy=0;endArrow=classic;endFill=1;" parent="1" source="3nyyxwVk8VfznhY3VDSI-26" target="3nyyxwVk8VfznhY3VDSI-26" edge="1"><mxGeometry relative="1" as="geometry"/></mxCell><mxCell id="3nyyxwVk8VfznhY3VDSI-35" value="" style="rounded=0;whiteSpace=wrap;html=1;fontSize=24;" parent="1" vertex="1"><mxGeometry x="1533" y="-2051" width="89" height="41" as="geometry"/></mxCell><mxCell id="3nyyxwVk8VfznhY3VDSI-50" style="edgeStyle=none;rounded=0;orthogonalLoop=1;jettySize=auto;html=1;endArrow=classic;endFill=1;strokeWidth=0;startArrow=classic;startFill=1;dashed=1;" parent="1" source="3nyyxwVk8VfznhY3VDSI-36" edge="1"><mxGeometry relative="1" as="geometry"><mxPoint x="1534.5909881591797" y="-2031" as="targetPoint"/></mxGeometry></mxCell><mxCell id="3nyyxwVk8VfznhY3VDSI-36" value="&lt;font style=&quot;font-size: 16px;&quot;&gt;С3&lt;/font&gt;" style="ellipse;whiteSpace=wrap;html=1;aspect=fixed;" parent="1" vertex="1"><mxGeometry x="1468" y="-2051" width="40" height="40" as="geometry"/></mxCell><mxCell id="3nyyxwVk8VfznhY3VDSI-37" value="." style="text;html=1;strokeColor=none;fillColor=none;align=center;verticalAlign=middle;whiteSpace=wrap;rounded=0;" parent="1" vertex="1"><mxGeometry x="1546" y="-2046" width="60" height="30" as="geometry"/></mxCell><mxCell id="3nyyxwVk8VfznhY3VDSI-51" style="edgeStyle=none;rounded=0;orthogonalLoop=1;jettySize=auto;html=1;entryX=0.5;entryY=0;entryDx=0;entryDy=0;endArrow=classic;endFill=1;" parent="1" source="3nyyxwVk8VfznhY3VDSI-38" target="3nyyxwVk8VfznhY3VDSI-43" edge="1"><mxGeometry relative="1" as="geometry"/></mxCell><mxCell id="3nyyxwVk8VfznhY3VDSI-38" value="" style="shape=waypoint;sketch=0;fillStyle=solid;size=6;pointerEvents=1;points=[];fillColor=none;resizable=0;rotatable=0;perimeter=centerPerimeter;snapToPoint=1;fontSize=24;" parent="1" vertex="1"><mxGeometry x="1536" y="-2050" width="40" height="40" as="geometry"/></mxCell><mxCell id="3nyyxwVk8VfznhY3VDSI-53" style="edgeStyle=none;rounded=0;orthogonalLoop=1;jettySize=auto;html=1;startArrow=none;startFill=0;endArrow=classic;endFill=1;strokeWidth=1;" parent="1" source="3nyyxwVk8VfznhY3VDSI-39" edge="1"><mxGeometry relative="1" as="geometry"><mxPoint x="1645" y="-1973" as="targetPoint"/></mxGeometry></mxCell><mxCell id="3nyyxwVk8VfznhY3VDSI-39" value="" style="shape=waypoint;sketch=0;fillStyle=solid;size=6;pointerEvents=1;points=[];fillColor=none;resizable=0;rotatable=0;perimeter=centerPerimeter;snapToPoint=1;fontSize=24;" parent="1" vertex="1"><mxGeometry x="1576" y="-2051" width="40" height="40" as="geometry"/></mxCell><mxCell id="3nyyxwVk8VfznhY3VDSI-40" style="edgeStyle=none;rounded=0;orthogonalLoop=1;jettySize=auto;html=1;exitX=1;exitY=0;exitDx=0;exitDy=0;endArrow=classic;endFill=1;" parent="1" source="3nyyxwVk8VfznhY3VDSI-35" target="3nyyxwVk8VfznhY3VDSI-35" edge="1"><mxGeometry relative="1" as="geometry"/></mxCell><mxCell id="3nyyxwVk8VfznhY3VDSI-42" style="edgeStyle=none;rounded=0;orthogonalLoop=1;jettySize=auto;html=1;exitX=0.5;exitY=1;exitDx=0;exitDy=0;endArrow=classic;endFill=1;" parent="1" source="3nyyxwVk8VfznhY3VDSI-36" target="3nyyxwVk8VfznhY3VDSI-36" edge="1"><mxGeometry relative="1" as="geometry"/></mxCell><mxCell id="3nyyxwVk8VfznhY3VDSI-43" value="&lt;font style=&quot;font-size: 16px;&quot;&gt;S1&lt;/font&gt;" style="ellipse;whiteSpace=wrap;html=1;aspect=fixed;fillColor=#f8cecc;strokeColor=#b85450;" parent="1" vertex="1"><mxGeometry x="1536" y="-1973" width="40" height="40" as="geometry"/></mxCell><mxCell id="ExdtPvuEu2BVj8xj11I--33" style="edgeStyle=none;rounded=0;orthogonalLoop=1;jettySize=auto;html=1;endArrow=classic;endFill=1;" parent="1" source="ExdtPvuEu2BVj8xj11I--34" target="ExdtPvuEu2BVj8xj11I--38" edge="1"><mxGeometry relative="1" as="geometry"/></mxCell><mxCell id="ExdtPvuEu2BVj8xj11I--34" value="" style="ellipse;whiteSpace=wrap;html=1;aspect=fixed;fillColor=#d5e8d4;strokeColor=#82b366;" parent="1" vertex="1"><mxGeometry x="1833" y="-2690" width="40" height="40" as="geometry"/></mxCell><mxCell id="ExdtPvuEu2BVj8xj11I--35" value="" style="rounded=0;whiteSpace=wrap;html=1;fontSize=24;" parent="1" vertex="1"><mxGeometry x="1898" y="-2592" width="89" height="41" as="geometry"/></mxCell><mxCell id="ExdtPvuEu2BVj8xj11I--36" style="edgeStyle=none;rounded=0;orthogonalLoop=1;jettySize=auto;html=1;entryX=0;entryY=1;entryDx=0;entryDy=0;endArrow=block;endFill=0;" parent="1" source="ExdtPvuEu2BVj8xj11I--34" target="ExdtPvuEu2BVj8xj11I--34" edge="1"><mxGeometry relative="1" as="geometry"/></mxCell><mxCell id="ExdtPvuEu2BVj8xj11I--37" style="edgeStyle=none;rounded=0;orthogonalLoop=1;jettySize=auto;html=1;endArrow=classic;endFill=1;dashed=1;startArrow=classic;startFill=1;strokeWidth=0;" parent="1" source="ExdtPvuEu2BVj8xj11I--38" edge="1"><mxGeometry relative="1" as="geometry"><mxPoint x="1896.8182525634766" y="-2571" as="targetPoint"/></mxGeometry></mxCell><mxCell id="ExdtPvuEu2BVj8xj11I--38" value="&lt;font style=&quot;font-size: 16px;&quot;&gt;С1&lt;/font&gt;" style="ellipse;whiteSpace=wrap;html=1;aspect=fixed;" parent="1" vertex="1"><mxGeometry x="1833" y="-2591" width="40" height="40" as="geometry"/></mxCell><mxCell id="ExdtPvuEu2BVj8xj11I--39" value="." style="text;html=1;strokeColor=none;fillColor=none;align=center;verticalAlign=middle;whiteSpace=wrap;rounded=0;" parent="1" vertex="1"><mxGeometry x="1911" y="-2587" width="60" height="30" as="geometry"/></mxCell><mxCell id="ExdtPvuEu2BVj8xj11I--40" style="edgeStyle=none;rounded=0;orthogonalLoop=1;jettySize=auto;html=1;endArrow=classic;endFill=1;entryX=0.5;entryY=0;entryDx=0;entryDy=0;" parent="1" source="ExdtPvuEu2BVj8xj11I--41" target="ExdtPvuEu2BVj8xj11I--47" edge="1"><mxGeometry relative="1" as="geometry"><mxPoint x="1947.7273712158203" y="-2525.727264404297" as="targetPoint"/></mxGeometry></mxCell><mxCell id="ExdtPvuEu2BVj8xj11I--41" value="" style="shape=waypoint;sketch=0;fillStyle=solid;size=6;pointerEvents=1;points=[];fillColor=none;resizable=0;rotatable=0;perimeter=centerPerimeter;snapToPoint=1;fontSize=24;" parent="1" vertex="1"><mxGeometry x="1901" y="-2591.5" width="40" height="40" as="geometry"/></mxCell><mxCell id="ExdtPvuEu2BVj8xj11I--42" style="edgeStyle=none;rounded=0;orthogonalLoop=1;jettySize=auto;html=1;endArrow=classic;endFill=1;" parent="1" source="ExdtPvuEu2BVj8xj11I--43" edge="1"><mxGeometry relative="1" as="geometry"><mxPoint x="2007" y="-2518" as="targetPoint"/></mxGeometry></mxCell><mxCell id="ExdtPvuEu2BVj8xj11I--43" value="" style="shape=waypoint;sketch=0;fillStyle=solid;size=6;pointerEvents=1;points=[];fillColor=none;resizable=0;rotatable=0;perimeter=centerPerimeter;snapToPoint=1;fontSize=24;" parent="1" vertex="1"><mxGeometry x="1941" y="-2592" width="40" height="40" as="geometry"/></mxCell><mxCell id="ExdtPvuEu2BVj8xj11I--44" style="edgeStyle=none;rounded=0;orthogonalLoop=1;jettySize=auto;html=1;exitX=1;exitY=0;exitDx=0;exitDy=0;endArrow=classic;endFill=1;" parent="1" source="ExdtPvuEu2BVj8xj11I--35" target="ExdtPvuEu2BVj8xj11I--35" edge="1"><mxGeometry relative="1" as="geometry"/></mxCell><mxCell id="ExdtPvuEu2BVj8xj11I--45" value="" style="rounded=0;whiteSpace=wrap;html=1;fontSize=24;" parent="1" vertex="1"><mxGeometry x="1898" y="-2473.5" width="89" height="41" as="geometry"/></mxCell><mxCell id="ExdtPvuEu2BVj8xj11I--46" style="edgeStyle=none;rounded=0;orthogonalLoop=1;jettySize=auto;html=1;endArrow=classic;endFill=1;strokeWidth=0;startArrow=classic;startFill=1;dashed=1;" parent="1" source="ExdtPvuEu2BVj8xj11I--47" edge="1"><mxGeometry relative="1" as="geometry"><mxPoint x="1899.5" y="-2452" as="targetPoint"/></mxGeometry></mxCell><mxCell id="ExdtPvuEu2BVj8xj11I--47" value="&lt;font style=&quot;font-size: 16px;&quot;&gt;С2&lt;/font&gt;" style="ellipse;whiteSpace=wrap;html=1;aspect=fixed;" parent="1" vertex="1"><mxGeometry x="1833" y="-2472.5" width="40" height="40" as="geometry"/></mxCell><mxCell id="ExdtPvuEu2BVj8xj11I--48" value="." style="text;html=1;strokeColor=none;fillColor=none;align=center;verticalAlign=middle;whiteSpace=wrap;rounded=0;" parent="1" vertex="1"><mxGeometry x="1911" y="-2468.5" width="60" height="30" as="geometry"/></mxCell><mxCell id="ExdtPvuEu2BVj8xj11I--49" style="edgeStyle=none;rounded=0;orthogonalLoop=1;jettySize=auto;html=1;entryX=0.5;entryY=0;entryDx=0;entryDy=0;endArrow=classic;endFill=1;" parent="1" source="ExdtPvuEu2BVj8xj11I--50" target="ExdtPvuEu2BVj8xj11I--56" edge="1"><mxGeometry relative="1" as="geometry"/></mxCell><mxCell id="ExdtPvuEu2BVj8xj11I--50" value="" style="shape=waypoint;sketch=0;fillStyle=solid;size=6;pointerEvents=1;points=[];fillColor=none;resizable=0;rotatable=0;perimeter=centerPerimeter;snapToPoint=1;fontSize=24;" parent="1" vertex="1"><mxGeometry x="1901" y="-2472.5" width="40" height="40" as="geometry"/></mxCell><mxCell id="ExdtPvuEu2BVj8xj11I--51" style="edgeStyle=none;rounded=0;orthogonalLoop=1;jettySize=auto;html=1;endArrow=classic;endFill=1;" parent="1" source="ExdtPvuEu2BVj8xj11I--52" edge="1"><mxGeometry relative="1" as="geometry"><mxPoint x="2010.8637237548828" y="-2405.9090881347656" as="targetPoint"/></mxGeometry></mxCell><mxCell id="ExdtPvuEu2BVj8xj11I--52" value="" style="shape=waypoint;sketch=0;fillStyle=solid;size=6;pointerEvents=1;points=[];fillColor=none;resizable=0;rotatable=0;perimeter=centerPerimeter;snapToPoint=1;fontSize=24;" parent="1" vertex="1"><mxGeometry x="1941" y="-2473.5" width="40" height="40" as="geometry"/></mxCell><mxCell id="ExdtPvuEu2BVj8xj11I--53" style="edgeStyle=none;rounded=0;orthogonalLoop=1;jettySize=auto;html=1;exitX=1;exitY=0;exitDx=0;exitDy=0;endArrow=classic;endFill=1;" parent="1" source="ExdtPvuEu2BVj8xj11I--45" target="ExdtPvuEu2BVj8xj11I--45" edge="1"><mxGeometry relative="1" as="geometry"/></mxCell><mxCell id="ExdtPvuEu2BVj8xj11I--54" value="" style="rounded=0;whiteSpace=wrap;html=1;fontSize=24;" parent="1" vertex="1"><mxGeometry x="1898" y="-2354" width="89" height="41" as="geometry"/></mxCell><mxCell id="ExdtPvuEu2BVj8xj11I--55" style="edgeStyle=none;rounded=0;orthogonalLoop=1;jettySize=auto;html=1;endArrow=classic;endFill=1;strokeWidth=0;startArrow=classic;startFill=1;dashed=1;" parent="1" source="ExdtPvuEu2BVj8xj11I--56" edge="1"><mxGeometry relative="1" as="geometry"><mxPoint x="1899.5909881591797" y="-2334" as="targetPoint"/></mxGeometry></mxCell><mxCell id="ExdtPvuEu2BVj8xj11I--56" value="&lt;font style=&quot;font-size: 16px;&quot;&gt;С3&lt;/font&gt;" style="ellipse;whiteSpace=wrap;html=1;aspect=fixed;" parent="1" vertex="1"><mxGeometry x="1833" y="-2354" width="40" height="40" as="geometry"/></mxCell><mxCell id="ExdtPvuEu2BVj8xj11I--57" value="." style="text;html=1;strokeColor=none;fillColor=none;align=center;verticalAlign=middle;whiteSpace=wrap;rounded=0;" parent="1" vertex="1"><mxGeometry x="1911" y="-2349" width="60" height="30" as="geometry"/></mxCell><mxCell id="ExdtPvuEu2BVj8xj11I--58" style="edgeStyle=none;rounded=0;orthogonalLoop=1;jettySize=auto;html=1;entryX=0.5;entryY=0;entryDx=0;entryDy=0;endArrow=classic;endFill=1;" parent="1" source="ExdtPvuEu2BVj8xj11I--59" target="ExdtPvuEu2BVj8xj11I--64" edge="1"><mxGeometry relative="1" as="geometry"/></mxCell><mxCell id="ExdtPvuEu2BVj8xj11I--59" value="" style="shape=waypoint;sketch=0;fillStyle=solid;size=6;pointerEvents=1;points=[];fillColor=none;resizable=0;rotatable=0;perimeter=centerPerimeter;snapToPoint=1;fontSize=24;" parent="1" vertex="1"><mxGeometry x="1901" y="-2353" width="40" height="40" as="geometry"/></mxCell><mxCell id="ExdtPvuEu2BVj8xj11I--60" style="edgeStyle=none;rounded=0;orthogonalLoop=1;jettySize=auto;html=1;startArrow=none;startFill=0;endArrow=classic;endFill=1;strokeWidth=1;" parent="1" source="ExdtPvuEu2BVj8xj11I--61" edge="1"><mxGeometry relative="1" as="geometry"><mxPoint x="2010" y="-2276" as="targetPoint"/></mxGeometry></mxCell><mxCell id="ExdtPvuEu2BVj8xj11I--61" value="" style="shape=waypoint;sketch=0;fillStyle=solid;size=6;pointerEvents=1;points=[];fillColor=none;resizable=0;rotatable=0;perimeter=centerPerimeter;snapToPoint=1;fontSize=24;" parent="1" vertex="1"><mxGeometry x="1941" y="-2354" width="40" height="40" as="geometry"/></mxCell><mxCell id="ExdtPvuEu2BVj8xj11I--62" style="edgeStyle=none;rounded=0;orthogonalLoop=1;jettySize=auto;html=1;exitX=1;exitY=0;exitDx=0;exitDy=0;endArrow=classic;endFill=1;" parent="1" source="ExdtPvuEu2BVj8xj11I--54" target="ExdtPvuEu2BVj8xj11I--54" edge="1"><mxGeometry relative="1" as="geometry"/></mxCell><mxCell id="ExdtPvuEu2BVj8xj11I--63" style="edgeStyle=none;rounded=0;orthogonalLoop=1;jettySize=auto;html=1;exitX=0.5;exitY=1;exitDx=0;exitDy=0;endArrow=classic;endFill=1;" parent="1" source="ExdtPvuEu2BVj8xj11I--56" target="ExdtPvuEu2BVj8xj11I--56" edge="1"><mxGeometry relative="1" as="geometry"/></mxCell><mxCell id="ExdtPvuEu2BVj8xj11I--64" value="&lt;font style=&quot;font-size: 16px;&quot;&gt;S1&lt;/font&gt;" style="ellipse;whiteSpace=wrap;html=1;aspect=fixed;fillColor=#f8cecc;strokeColor=#b85450;" parent="1" vertex="1"><mxGeometry x="1901" y="-2276" width="40" height="40" as="geometry"/></mxCell><mxCell id="ExdtPvuEu2BVj8xj11I--65" value="&lt;font size=&quot;1&quot; style=&quot;&quot;&gt;&lt;b style=&quot;font-size: 24px;&quot;&gt;T1&lt;/b&gt;&lt;/font&gt;" style="text;html=1;strokeColor=none;fillColor=none;align=center;verticalAlign=middle;whiteSpace=wrap;rounded=0;" parent="1" vertex="1"><mxGeometry x="2107" y="-2497" width="53" height="20" as="geometry"/></mxCell><mxCell id="ExdtPvuEu2BVj8xj11I--66" value="" style="rounded=0;whiteSpace=wrap;html=1;fontSize=24;" parent="1" vertex="1"><mxGeometry x="2208" y="-2455.5" width="126" height="41" as="geometry"/></mxCell><mxCell id="ExdtPvuEu2BVj8xj11I--67" style="edgeStyle=none;rounded=0;orthogonalLoop=1;jettySize=auto;html=1;endArrow=classic;endFill=1;strokeWidth=0;startArrow=classic;startFill=1;dashed=1;" parent="1" source="ExdtPvuEu2BVj8xj11I--68" edge="1"><mxGeometry relative="1" as="geometry"><mxPoint x="2209.5909881591797" y="-2435.5" as="targetPoint"/></mxGeometry></mxCell><mxCell id="ExdtPvuEu2BVj8xj11I--68" value="&lt;font style=&quot;font-size: 16px;&quot;&gt;С3'&lt;/font&gt;" style="ellipse;whiteSpace=wrap;html=1;aspect=fixed;fillColor=#fff2cc;strokeColor=#d6b656;" parent="1" vertex="1"><mxGeometry x="2143" y="-2455.5" width="40" height="40" as="geometry"/></mxCell><mxCell id="ExdtPvuEu2BVj8xj11I--69" value="." style="text;html=1;strokeColor=none;fillColor=none;align=center;verticalAlign=middle;whiteSpace=wrap;rounded=0;" parent="1" vertex="1"><mxGeometry x="2221" y="-2450.5" width="60" height="30" as="geometry"/></mxCell><mxCell id="ExdtPvuEu2BVj8xj11I--70" style="edgeStyle=none;rounded=0;orthogonalLoop=1;jettySize=auto;html=1;entryX=0.5;entryY=0;entryDx=0;entryDy=0;endArrow=classic;endFill=1;" parent="1" source="ExdtPvuEu2BVj8xj11I--71" target="ExdtPvuEu2BVj8xj11I--76" edge="1"><mxGeometry relative="1" as="geometry"/></mxCell><mxCell id="ExdtPvuEu2BVj8xj11I--71" value="" style="shape=waypoint;sketch=0;fillStyle=solid;size=6;pointerEvents=1;points=[];fillColor=none;resizable=0;rotatable=0;perimeter=centerPerimeter;snapToPoint=1;fontSize=24;" parent="1" vertex="1"><mxGeometry x="2211" y="-2454.5" width="40" height="40" as="geometry"/></mxCell><mxCell id="ExdtPvuEu2BVj8xj11I--452" style="edgeStyle=none;rounded=0;orthogonalLoop=1;jettySize=auto;html=1;entryX=0.5;entryY=0;entryDx=0;entryDy=0;fontSize=24;" parent="1" source="ExdtPvuEu2BVj8xj11I--73" target="ExdtPvuEu2BVj8xj11I--81" edge="1"><mxGeometry relative="1" as="geometry"/></mxCell><mxCell id="ExdtPvuEu2BVj8xj11I--73" value="" style="shape=waypoint;sketch=0;fillStyle=solid;size=6;pointerEvents=1;points=[];fillColor=none;resizable=0;rotatable=0;perimeter=centerPerimeter;snapToPoint=1;fontSize=24;" parent="1" vertex="1"><mxGeometry x="2241" y="-2455.5" width="40" height="40" as="geometry"/></mxCell><mxCell id="ExdtPvuEu2BVj8xj11I--74" style="edgeStyle=none;rounded=0;orthogonalLoop=1;jettySize=auto;html=1;exitX=1;exitY=0;exitDx=0;exitDy=0;endArrow=classic;endFill=1;" parent="1" source="ExdtPvuEu2BVj8xj11I--66" target="ExdtPvuEu2BVj8xj11I--66" edge="1"><mxGeometry relative="1" as="geometry"/></mxCell><mxCell id="ExdtPvuEu2BVj8xj11I--75" style="edgeStyle=none;rounded=0;orthogonalLoop=1;jettySize=auto;html=1;exitX=0.5;exitY=1;exitDx=0;exitDy=0;endArrow=classic;endFill=1;" parent="1" source="ExdtPvuEu2BVj8xj11I--68" target="ExdtPvuEu2BVj8xj11I--68" edge="1"><mxGeometry relative="1" as="geometry"/></mxCell><mxCell id="ExdtPvuEu2BVj8xj11I--76" value="&lt;font style=&quot;font-size: 16px;&quot;&gt;S1&lt;/font&gt;" style="ellipse;whiteSpace=wrap;html=1;aspect=fixed;fillColor=#f8cecc;strokeColor=#b85450;" parent="1" vertex="1"><mxGeometry x="2211" y="-2377.5" width="40" height="40" as="geometry"/></mxCell><mxCell id="ExdtPvuEu2BVj8xj11I--81" value="&lt;font style=&quot;font-size: 16px;&quot;&gt;S2&lt;/font&gt;" style="ellipse;whiteSpace=wrap;html=1;aspect=fixed;fillColor=#f8cecc;strokeColor=#b85450;" parent="1" vertex="1"><mxGeometry x="2267" y="-2379" width="40" height="40" as="geometry"/></mxCell><mxCell id="ExdtPvuEu2BVj8xj11I--360" style="edgeStyle=none;rounded=0;orthogonalLoop=1;jettySize=auto;html=1;endArrow=classic;endFill=1;" parent="1" source="ExdtPvuEu2BVj8xj11I--361" target="ExdtPvuEu2BVj8xj11I--365" edge="1"><mxGeometry relative="1" as="geometry"/></mxCell><mxCell id="ExdtPvuEu2BVj8xj11I--361" value="" style="ellipse;whiteSpace=wrap;html=1;aspect=fixed;fillColor=#d5e8d4;strokeColor=#82b366;" parent="1" vertex="1"><mxGeometry x="3030" y="-2812" width="40" height="40" as="geometry"/></mxCell><mxCell id="ExdtPvuEu2BVj8xj11I--362" value="" style="rounded=0;whiteSpace=wrap;html=1;fontSize=24;" parent="1" vertex="1"><mxGeometry x="3095" y="-2714" width="89" height="41" as="geometry"/></mxCell><mxCell id="ExdtPvuEu2BVj8xj11I--363" style="edgeStyle=none;rounded=0;orthogonalLoop=1;jettySize=auto;html=1;entryX=0;entryY=1;entryDx=0;entryDy=0;endArrow=block;endFill=0;" parent="1" source="ExdtPvuEu2BVj8xj11I--361" target="ExdtPvuEu2BVj8xj11I--361" edge="1"><mxGeometry relative="1" as="geometry"/></mxCell><mxCell id="ExdtPvuEu2BVj8xj11I--364" style="edgeStyle=none;rounded=0;orthogonalLoop=1;jettySize=auto;html=1;endArrow=classic;endFill=1;dashed=1;startArrow=classic;startFill=1;strokeWidth=0;" parent="1" source="ExdtPvuEu2BVj8xj11I--365" edge="1"><mxGeometry relative="1" as="geometry"><mxPoint x="3093.8182525634766" y="-2693" as="targetPoint"/></mxGeometry></mxCell><mxCell id="ExdtPvuEu2BVj8xj11I--365" value="&lt;font style=&quot;font-size: 16px;&quot;&gt;С1&lt;/font&gt;" style="ellipse;whiteSpace=wrap;html=1;aspect=fixed;" parent="1" vertex="1"><mxGeometry x="3030" y="-2713" width="40" height="40" as="geometry"/></mxCell><mxCell id="ExdtPvuEu2BVj8xj11I--366" value="." style="text;html=1;strokeColor=none;fillColor=none;align=center;verticalAlign=middle;whiteSpace=wrap;rounded=0;" parent="1" vertex="1"><mxGeometry x="3108" y="-2709" width="60" height="30" as="geometry"/></mxCell><mxCell id="ExdtPvuEu2BVj8xj11I--367" style="edgeStyle=none;rounded=0;orthogonalLoop=1;jettySize=auto;html=1;endArrow=classic;endFill=1;entryX=0.5;entryY=0;entryDx=0;entryDy=0;" parent="1" source="ExdtPvuEu2BVj8xj11I--368" target="ExdtPvuEu2BVj8xj11I--374" edge="1"><mxGeometry relative="1" as="geometry"><mxPoint x="3144.7273712158203" y="-2647.727264404297" as="targetPoint"/></mxGeometry></mxCell><mxCell id="ExdtPvuEu2BVj8xj11I--368" value="" style="shape=waypoint;sketch=0;fillStyle=solid;size=6;pointerEvents=1;points=[];fillColor=none;resizable=0;rotatable=0;perimeter=centerPerimeter;snapToPoint=1;fontSize=24;" parent="1" vertex="1"><mxGeometry x="3098" y="-2713.5" width="40" height="40" as="geometry"/></mxCell><mxCell id="ExdtPvuEu2BVj8xj11I--369" style="edgeStyle=none;rounded=0;orthogonalLoop=1;jettySize=auto;html=1;endArrow=classic;endFill=1;" parent="1" source="ExdtPvuEu2BVj8xj11I--370" edge="1"><mxGeometry relative="1" as="geometry"><mxPoint x="3204" y="-2640" as="targetPoint"/></mxGeometry></mxCell><mxCell id="ExdtPvuEu2BVj8xj11I--370" value="" style="shape=waypoint;sketch=0;fillStyle=solid;size=6;pointerEvents=1;points=[];fillColor=none;resizable=0;rotatable=0;perimeter=centerPerimeter;snapToPoint=1;fontSize=24;" parent="1" vertex="1"><mxGeometry x="3138" y="-2714" width="40" height="40" as="geometry"/></mxCell><mxCell id="ExdtPvuEu2BVj8xj11I--371" style="edgeStyle=none;rounded=0;orthogonalLoop=1;jettySize=auto;html=1;exitX=1;exitY=0;exitDx=0;exitDy=0;endArrow=classic;endFill=1;" parent="1" source="ExdtPvuEu2BVj8xj11I--362" target="ExdtPvuEu2BVj8xj11I--362" edge="1"><mxGeometry relative="1" as="geometry"/></mxCell><mxCell id="ExdtPvuEu2BVj8xj11I--372" value="" style="rounded=0;whiteSpace=wrap;html=1;fontSize=24;" parent="1" vertex="1"><mxGeometry x="3095" y="-2595.5" width="89" height="41" as="geometry"/></mxCell><mxCell id="ExdtPvuEu2BVj8xj11I--373" style="edgeStyle=none;rounded=0;orthogonalLoop=1;jettySize=auto;html=1;endArrow=classic;endFill=1;strokeWidth=0;startArrow=classic;startFill=1;dashed=1;" parent="1" source="ExdtPvuEu2BVj8xj11I--374" edge="1"><mxGeometry relative="1" as="geometry"><mxPoint x="3096.5" y="-2574" as="targetPoint"/></mxGeometry></mxCell><mxCell id="ExdtPvuEu2BVj8xj11I--374" value="&lt;font style=&quot;font-size: 16px;&quot;&gt;С2&lt;/font&gt;" style="ellipse;whiteSpace=wrap;html=1;aspect=fixed;" parent="1" vertex="1"><mxGeometry x="3030" y="-2594.5" width="40" height="40" as="geometry"/></mxCell><mxCell id="ExdtPvuEu2BVj8xj11I--375" value="." style="text;html=1;strokeColor=none;fillColor=none;align=center;verticalAlign=middle;whiteSpace=wrap;rounded=0;" parent="1" vertex="1"><mxGeometry x="3108" y="-2590.5" width="60" height="30" as="geometry"/></mxCell><mxCell id="ExdtPvuEu2BVj8xj11I--376" style="edgeStyle=none;rounded=0;orthogonalLoop=1;jettySize=auto;html=1;entryX=0.5;entryY=0;entryDx=0;entryDy=0;endArrow=classic;endFill=1;" parent="1" source="ExdtPvuEu2BVj8xj11I--377" target="ExdtPvuEu2BVj8xj11I--383" edge="1"><mxGeometry relative="1" as="geometry"/></mxCell><mxCell id="ExdtPvuEu2BVj8xj11I--377" value="" style="shape=waypoint;sketch=0;fillStyle=solid;size=6;pointerEvents=1;points=[];fillColor=none;resizable=0;rotatable=0;perimeter=centerPerimeter;snapToPoint=1;fontSize=24;" parent="1" vertex="1"><mxGeometry x="3098" y="-2594.5" width="40" height="40" as="geometry"/></mxCell><mxCell id="ExdtPvuEu2BVj8xj11I--378" style="edgeStyle=none;rounded=0;orthogonalLoop=1;jettySize=auto;html=1;endArrow=classic;endFill=1;" parent="1" source="ExdtPvuEu2BVj8xj11I--379" edge="1"><mxGeometry relative="1" as="geometry"><mxPoint x="3207.863723754883" y="-2527.9090881347656" as="targetPoint"/></mxGeometry></mxCell><mxCell id="ExdtPvuEu2BVj8xj11I--379" value="" style="shape=waypoint;sketch=0;fillStyle=solid;size=6;pointerEvents=1;points=[];fillColor=none;resizable=0;rotatable=0;perimeter=centerPerimeter;snapToPoint=1;fontSize=24;" parent="1" vertex="1"><mxGeometry x="3138" y="-2595.5" width="40" height="40" as="geometry"/></mxCell><mxCell id="ExdtPvuEu2BVj8xj11I--380" style="edgeStyle=none;rounded=0;orthogonalLoop=1;jettySize=auto;html=1;exitX=1;exitY=0;exitDx=0;exitDy=0;endArrow=classic;endFill=1;" parent="1" source="ExdtPvuEu2BVj8xj11I--372" target="ExdtPvuEu2BVj8xj11I--372" edge="1"><mxGeometry relative="1" as="geometry"/></mxCell><mxCell id="ExdtPvuEu2BVj8xj11I--381" value="" style="rounded=0;whiteSpace=wrap;html=1;fontSize=24;" parent="1" vertex="1"><mxGeometry x="3095" y="-2476" width="89" height="41" as="geometry"/></mxCell><mxCell id="ExdtPvuEu2BVj8xj11I--382" style="edgeStyle=none;rounded=0;orthogonalLoop=1;jettySize=auto;html=1;endArrow=classic;endFill=1;strokeWidth=0;startArrow=classic;startFill=1;dashed=1;" parent="1" source="ExdtPvuEu2BVj8xj11I--383" edge="1"><mxGeometry relative="1" as="geometry"><mxPoint x="3096.5909881591797" y="-2456" as="targetPoint"/></mxGeometry></mxCell><mxCell id="ExdtPvuEu2BVj8xj11I--383" value="&lt;font style=&quot;font-size: 16px;&quot;&gt;С3&lt;/font&gt;" style="ellipse;whiteSpace=wrap;html=1;aspect=fixed;" parent="1" vertex="1"><mxGeometry x="3030" y="-2476" width="40" height="40" as="geometry"/></mxCell><mxCell id="ExdtPvuEu2BVj8xj11I--384" value="." style="text;html=1;strokeColor=none;fillColor=none;align=center;verticalAlign=middle;whiteSpace=wrap;rounded=0;" parent="1" vertex="1"><mxGeometry x="3108" y="-2471" width="60" height="30" as="geometry"/></mxCell><mxCell id="ExdtPvuEu2BVj8xj11I--385" style="edgeStyle=none;rounded=0;orthogonalLoop=1;jettySize=auto;html=1;entryX=0.5;entryY=0;entryDx=0;entryDy=0;endArrow=classic;endFill=1;" parent="1" source="ExdtPvuEu2BVj8xj11I--386" target="ExdtPvuEu2BVj8xj11I--391" edge="1"><mxGeometry relative="1" as="geometry"/></mxCell><mxCell id="ExdtPvuEu2BVj8xj11I--386" value="" style="shape=waypoint;sketch=0;fillStyle=solid;size=6;pointerEvents=1;points=[];fillColor=none;resizable=0;rotatable=0;perimeter=centerPerimeter;snapToPoint=1;fontSize=24;" parent="1" vertex="1"><mxGeometry x="3098" y="-2475" width="40" height="40" as="geometry"/></mxCell><mxCell id="ExdtPvuEu2BVj8xj11I--387" style="edgeStyle=none;rounded=0;orthogonalLoop=1;jettySize=auto;html=1;startArrow=none;startFill=0;endArrow=classic;endFill=1;strokeWidth=1;" parent="1" source="ExdtPvuEu2BVj8xj11I--388" edge="1"><mxGeometry relative="1" as="geometry"><mxPoint x="3207" y="-2398" as="targetPoint"/></mxGeometry></mxCell><mxCell id="ExdtPvuEu2BVj8xj11I--388" value="" style="shape=waypoint;sketch=0;fillStyle=solid;size=6;pointerEvents=1;points=[];fillColor=none;resizable=0;rotatable=0;perimeter=centerPerimeter;snapToPoint=1;fontSize=24;" parent="1" vertex="1"><mxGeometry x="3138" y="-2476" width="40" height="40" as="geometry"/></mxCell><mxCell id="ExdtPvuEu2BVj8xj11I--389" style="edgeStyle=none;rounded=0;orthogonalLoop=1;jettySize=auto;html=1;exitX=1;exitY=0;exitDx=0;exitDy=0;endArrow=classic;endFill=1;" parent="1" source="ExdtPvuEu2BVj8xj11I--381" target="ExdtPvuEu2BVj8xj11I--381" edge="1"><mxGeometry relative="1" as="geometry"/></mxCell><mxCell id="ExdtPvuEu2BVj8xj11I--390" style="edgeStyle=none;rounded=0;orthogonalLoop=1;jettySize=auto;html=1;exitX=0.5;exitY=1;exitDx=0;exitDy=0;endArrow=classic;endFill=1;" parent="1" source="ExdtPvuEu2BVj8xj11I--383" target="ExdtPvuEu2BVj8xj11I--383" edge="1"><mxGeometry relative="1" as="geometry"/></mxCell><mxCell id="ExdtPvuEu2BVj8xj11I--391" value="&lt;font style=&quot;font-size: 16px;&quot;&gt;S1&lt;/font&gt;" style="ellipse;whiteSpace=wrap;html=1;aspect=fixed;fillColor=#f8cecc;strokeColor=#b85450;" parent="1" vertex="1"><mxGeometry x="3098" y="-2398" width="40" height="40" as="geometry"/></mxCell><mxCell id="ExdtPvuEu2BVj8xj11I--401" style="edgeStyle=none;rounded=0;orthogonalLoop=1;jettySize=auto;html=1;exitX=1;exitY=0;exitDx=0;exitDy=0;endArrow=classic;endFill=1;" parent="1" edge="1"><mxGeometry relative="1" as="geometry"><mxPoint x="3102" y="-1921.5" as="sourcePoint"/><mxPoint x="3102" y="-1921.5" as="targetPoint"/></mxGeometry></mxCell><mxCell id="ExdtPvuEu2BVj8xj11I--402" style="edgeStyle=none;rounded=0;orthogonalLoop=1;jettySize=auto;html=1;exitX=0.5;exitY=1;exitDx=0;exitDy=0;endArrow=classic;endFill=1;" parent="1" edge="1"><mxGeometry relative="1" as="geometry"><mxPoint x="3360" y="-2537.5" as="sourcePoint"/><mxPoint x="3360" y="-2537.5" as="targetPoint"/></mxGeometry></mxCell><mxCell id="ExdtPvuEu2BVj8xj11I--431" value="&lt;font size=&quot;1&quot; style=&quot;&quot;&gt;&lt;b style=&quot;font-size: 24px;&quot;&gt;T2&lt;/b&gt;&lt;/font&gt;" style="text;html=1;strokeColor=none;fillColor=none;align=center;verticalAlign=middle;whiteSpace=wrap;rounded=0;" parent="1" vertex="1"><mxGeometry x="2693" y="-2647" width="53" height="20" as="geometry"/></mxCell><mxCell id="ExdtPvuEu2BVj8xj11I--432" value="" style="rounded=0;whiteSpace=wrap;html=1;fontSize=24;" parent="1" vertex="1"><mxGeometry x="2805" y="-2600" width="154" height="41" as="geometry"/></mxCell><mxCell id="ExdtPvuEu2BVj8xj11I--434" value="&lt;font style=&quot;font-size: 16px;&quot;&gt;С2'&lt;/font&gt;" style="ellipse;whiteSpace=wrap;html=1;aspect=fixed;fillColor=#fff2cc;strokeColor=#d6b656;" parent="1" vertex="1"><mxGeometry x="2724" y="-2600" width="40" height="40" as="geometry"/></mxCell><mxCell id="ExdtPvuEu2BVj8xj11I--435" value="." style="text;html=1;strokeColor=none;fillColor=none;align=center;verticalAlign=middle;whiteSpace=wrap;rounded=0;" parent="1" vertex="1"><mxGeometry x="2818" y="-2595" width="60" height="30" as="geometry"/></mxCell><mxCell id="ExdtPvuEu2BVj8xj11I--436" style="edgeStyle=none;rounded=0;orthogonalLoop=1;jettySize=auto;html=1;entryX=0.5;entryY=0;entryDx=0;entryDy=0;endArrow=classic;endFill=1;" parent="1" source="ExdtPvuEu2BVj8xj11I--437" target="ExdtPvuEu2BVj8xj11I--442" edge="1"><mxGeometry relative="1" as="geometry"/></mxCell><mxCell id="ExdtPvuEu2BVj8xj11I--437" value="" style="shape=waypoint;sketch=0;fillStyle=solid;size=6;pointerEvents=1;points=[];fillColor=none;resizable=0;rotatable=0;perimeter=centerPerimeter;snapToPoint=1;fontSize=24;" parent="1" vertex="1"><mxGeometry x="2808" y="-2599.5" width="40" height="40" as="geometry"/></mxCell><mxCell id="ExdtPvuEu2BVj8xj11I--438" style="edgeStyle=none;rounded=0;orthogonalLoop=1;jettySize=auto;html=1;startArrow=none;startFill=0;endArrow=classic;endFill=1;strokeWidth=1;entryX=0.5;entryY=0;entryDx=0;entryDy=0;" parent="1" source="ExdtPvuEu2BVj8xj11I--439" target="ExdtPvuEu2BVj8xj11I--443" edge="1"><mxGeometry relative="1" as="geometry"><mxPoint x="2906" y="-2521.5" as="targetPoint"/></mxGeometry></mxCell><mxCell id="ExdtPvuEu2BVj8xj11I--439" value="" style="shape=waypoint;sketch=0;fillStyle=solid;size=6;pointerEvents=1;points=[];fillColor=none;resizable=0;rotatable=0;perimeter=centerPerimeter;snapToPoint=1;fontSize=24;" parent="1" vertex="1"><mxGeometry x="2851" y="-2599" width="40" height="40" as="geometry"/></mxCell><mxCell id="ExdtPvuEu2BVj8xj11I--440" style="edgeStyle=none;rounded=0;orthogonalLoop=1;jettySize=auto;html=1;exitX=1;exitY=0;exitDx=0;exitDy=0;endArrow=classic;endFill=1;" parent="1" source="ExdtPvuEu2BVj8xj11I--432" target="ExdtPvuEu2BVj8xj11I--432" edge="1"><mxGeometry relative="1" as="geometry"/></mxCell><mxCell id="ExdtPvuEu2BVj8xj11I--441" style="edgeStyle=none;rounded=0;orthogonalLoop=1;jettySize=auto;html=1;exitX=0.5;exitY=1;exitDx=0;exitDy=0;endArrow=classic;endFill=1;" parent="1" source="ExdtPvuEu2BVj8xj11I--434" target="ExdtPvuEu2BVj8xj11I--434" edge="1"><mxGeometry relative="1" as="geometry"/></mxCell><mxCell id="ExdtPvuEu2BVj8xj11I--442" value="&lt;span style=&quot;font-size: 16px;&quot;&gt;С3&lt;/span&gt;" style="ellipse;whiteSpace=wrap;html=1;aspect=fixed;" parent="1" vertex="1"><mxGeometry x="2808" y="-2522" width="40" height="40" as="geometry"/></mxCell><mxCell id="ExdtPvuEu2BVj8xj11I--443" value="&lt;font style=&quot;font-size: 16px;&quot;&gt;S3&lt;/font&gt;" style="ellipse;whiteSpace=wrap;html=1;aspect=fixed;fillColor=#f8cecc;strokeColor=#b85450;" parent="1" vertex="1"><mxGeometry x="2873" y="-2522" width="40" height="40" as="geometry"/></mxCell><mxCell id="ExdtPvuEu2BVj8xj11I--450" style="rounded=0;orthogonalLoop=1;jettySize=auto;html=1;fontSize=24;" parent="1" source="ExdtPvuEu2BVj8xj11I--449" edge="1"><mxGeometry relative="1" as="geometry"><mxPoint x="2958.908447265625" y="-2515.3000259399414" as="targetPoint"/></mxGeometry></mxCell><mxCell id="ExdtPvuEu2BVj8xj11I--449" value="" style="shape=waypoint;sketch=0;fillStyle=solid;size=6;pointerEvents=1;points=[];fillColor=none;resizable=0;rotatable=0;perimeter=centerPerimeter;snapToPoint=1;fontSize=24;" parent="1" vertex="1"><mxGeometry x="2913" y="-2599" width="40" height="40" as="geometry"/></mxCell><mxCell id="ExdtPvuEu2BVj8xj11I--454" style="edgeStyle=none;rounded=0;orthogonalLoop=1;jettySize=auto;html=1;entryX=0.794;entryY=0.596;entryDx=0;entryDy=0;entryPerimeter=0;fontSize=24;" parent="1" source="ExdtPvuEu2BVj8xj11I--451" target="ExdtPvuEu2BVj8xj11I--79" edge="1"><mxGeometry relative="1" as="geometry"/></mxCell><mxCell id="ExdtPvuEu2BVj8xj11I--451" value="" style="shape=waypoint;sketch=0;fillStyle=solid;size=6;pointerEvents=1;points=[];fillColor=none;resizable=0;rotatable=0;perimeter=centerPerimeter;snapToPoint=1;fontSize=24;" parent="1" vertex="1"><mxGeometry x="2290" y="-2455.5" width="40" height="40" as="geometry"/></mxCell><mxCell id="ExdtPvuEu2BVj8xj11I--455" value="..." style="ellipse;shape=cloud;whiteSpace=wrap;html=1;fontSize=17;dashed=1;" parent="1" vertex="1"><mxGeometry x="3260" y="-2453.5" width="110" height="66" as="geometry"/></mxCell><mxCell id="ExdtPvuEu2BVj8xj11I--456" value="&lt;font size=&quot;1&quot; style=&quot;&quot;&gt;&lt;b style=&quot;font-size: 24px;&quot;&gt;T1&lt;/b&gt;&lt;/font&gt;" style="text;html=1;strokeColor=none;fillColor=none;align=center;verticalAlign=middle;whiteSpace=wrap;rounded=0;" parent="1" vertex="1"><mxGeometry x="3232" y="-2472.5" width="53" height="20" as="geometry"/></mxCell><mxCell id="90AiFmgedKcCqizd896B-2" style="edgeStyle=orthogonalEdgeStyle;rounded=0;orthogonalLoop=1;jettySize=auto;html=1;entryX=0.5;entryY=0;entryDx=0;entryDy=0;" parent="1" source="ExdtPvuEu2BVj8xj11I--458" target="90AiFmgedKcCqizd896B-1" edge="1"><mxGeometry relative="1" as="geometry"/></mxCell><mxCell id="ExdtPvuEu2BVj8xj11I--458" value="" style="ellipse;whiteSpace=wrap;html=1;aspect=fixed;fillColor=#d5e8d4;strokeColor=#82b366;" parent="1" vertex="1"><mxGeometry x="3095" y="-2236" width="40" height="40" as="geometry"/></mxCell><mxCell id="ExdtPvuEu2BVj8xj11I--459" value="" style="rounded=0;whiteSpace=wrap;html=1;fontSize=24;" parent="1" vertex="1"><mxGeometry x="3168" y="-2073" width="89" height="41" as="geometry"/></mxCell><mxCell id="ExdtPvuEu2BVj8xj11I--460" style="edgeStyle=none;rounded=0;orthogonalLoop=1;jettySize=auto;html=1;entryX=0;entryY=1;entryDx=0;entryDy=0;endArrow=block;endFill=0;" parent="1" source="ExdtPvuEu2BVj8xj11I--458" target="ExdtPvuEu2BVj8xj11I--458" edge="1"><mxGeometry relative="1" as="geometry"/></mxCell><mxCell id="ExdtPvuEu2BVj8xj11I--461" style="edgeStyle=none;rounded=0;orthogonalLoop=1;jettySize=auto;html=1;endArrow=classic;endFill=1;dashed=1;startArrow=classic;startFill=1;strokeWidth=0;entryX=0;entryY=0.5;entryDx=0;entryDy=0;" parent="1" source="ExdtPvuEu2BVj8xj11I--462" target="ExdtPvuEu2BVj8xj11I--459" edge="1"><mxGeometry relative="1" as="geometry"><mxPoint x="3164" y="-2050" as="targetPoint"/></mxGeometry></mxCell><mxCell id="ExdtPvuEu2BVj8xj11I--462" value="&lt;font style=&quot;font-size: 16px;&quot;&gt;С1&lt;/font&gt;" style="ellipse;whiteSpace=wrap;html=1;aspect=fixed;" parent="1" vertex="1"><mxGeometry x="3095" y="-2072" width="40" height="40" as="geometry"/></mxCell><mxCell id="ExdtPvuEu2BVj8xj11I--463" value="." style="text;html=1;strokeColor=none;fillColor=none;align=center;verticalAlign=middle;whiteSpace=wrap;rounded=0;" parent="1" vertex="1"><mxGeometry x="3181" y="-2068" width="60" height="30" as="geometry"/></mxCell><mxCell id="ExdtPvuEu2BVj8xj11I--464" style="edgeStyle=none;rounded=0;orthogonalLoop=1;jettySize=auto;html=1;endArrow=classic;endFill=1;entryX=0.5;entryY=0;entryDx=0;entryDy=0;" parent="1" source="ExdtPvuEu2BVj8xj11I--465" target="ExdtPvuEu2BVj8xj11I--471" edge="1"><mxGeometry relative="1" as="geometry"><mxPoint x="3207.7273712158203" y="-1980.7272644042969" as="targetPoint"/></mxGeometry></mxCell><mxCell id="ExdtPvuEu2BVj8xj11I--465" value="" style="shape=waypoint;sketch=0;fillStyle=solid;size=6;pointerEvents=1;points=[];fillColor=none;resizable=0;rotatable=0;perimeter=centerPerimeter;snapToPoint=1;fontSize=24;" parent="1" vertex="1"><mxGeometry x="3170" y="-2072.5" width="40" height="40" as="geometry"/></mxCell><mxCell id="ExdtPvuEu2BVj8xj11I--466" style="edgeStyle=none;rounded=0;orthogonalLoop=1;jettySize=auto;html=1;endArrow=classic;endFill=1;entryX=0.5;entryY=0;entryDx=0;entryDy=0;" parent="1" source="ExdtPvuEu2BVj8xj11I--467" target="ExdtPvuEu2BVj8xj11I--490" edge="1"><mxGeometry relative="1" as="geometry"><mxPoint x="3267" y="-1973" as="targetPoint"/></mxGeometry></mxCell><mxCell id="ExdtPvuEu2BVj8xj11I--467" value="" style="shape=waypoint;sketch=0;fillStyle=solid;size=6;pointerEvents=1;points=[];fillColor=none;resizable=0;rotatable=0;perimeter=centerPerimeter;snapToPoint=1;fontSize=24;" parent="1" vertex="1"><mxGeometry x="3211" y="-2073" width="40" height="40" as="geometry"/></mxCell><mxCell id="ExdtPvuEu2BVj8xj11I--468" style="edgeStyle=none;rounded=0;orthogonalLoop=1;jettySize=auto;html=1;exitX=1;exitY=0;exitDx=0;exitDy=0;endArrow=classic;endFill=1;" parent="1" source="ExdtPvuEu2BVj8xj11I--459" target="ExdtPvuEu2BVj8xj11I--459" edge="1"><mxGeometry relative="1" as="geometry"/></mxCell><mxCell id="90AiFmgedKcCqizd896B-4" style="edgeStyle=orthogonalEdgeStyle;rounded=0;orthogonalLoop=1;jettySize=auto;html=1;" parent="1" source="ExdtPvuEu2BVj8xj11I--471" target="ExdtPvuEu2BVj8xj11I--480" edge="1"><mxGeometry relative="1" as="geometry"/></mxCell><mxCell id="ExdtPvuEu2BVj8xj11I--471" value="&lt;font style=&quot;font-size: 16px;&quot;&gt;I2&lt;/font&gt;" style="ellipse;whiteSpace=wrap;html=1;aspect=fixed;" parent="1" vertex="1"><mxGeometry x="3095" y="-1996" width="40" height="40" as="geometry"/></mxCell><mxCell id="ExdtPvuEu2BVj8xj11I--477" style="edgeStyle=none;rounded=0;orthogonalLoop=1;jettySize=auto;html=1;exitX=1;exitY=0;exitDx=0;exitDy=0;endArrow=classic;endFill=1;" parent="1" edge="1"><mxGeometry relative="1" as="geometry"><mxPoint x="3201" y="-1997" as="sourcePoint"/><mxPoint x="3201" y="-1997" as="targetPoint"/></mxGeometry></mxCell><mxCell id="ExdtPvuEu2BVj8xj11I--478" value="" style="rounded=0;whiteSpace=wrap;html=1;fontSize=24;" parent="1" vertex="1"><mxGeometry x="3160" y="-1921.5" width="45" height="41" as="geometry"/></mxCell><mxCell id="ExdtPvuEu2BVj8xj11I--479" style="edgeStyle=none;rounded=0;orthogonalLoop=1;jettySize=auto;html=1;endArrow=classic;endFill=1;strokeWidth=0;startArrow=classic;startFill=1;dashed=1;" parent="1" source="ExdtPvuEu2BVj8xj11I--480" edge="1"><mxGeometry relative="1" as="geometry"><mxPoint x="3161.5909881591797" y="-1901.5" as="targetPoint"/></mxGeometry></mxCell><mxCell id="ExdtPvuEu2BVj8xj11I--480" value="&lt;font style=&quot;font-size: 16px;&quot;&gt;С2&lt;/font&gt;" style="ellipse;whiteSpace=wrap;html=1;aspect=fixed;" parent="1" vertex="1"><mxGeometry x="3095" y="-1921.5" width="40" height="40" as="geometry"/></mxCell><mxCell id="ExdtPvuEu2BVj8xj11I--481" value="." style="text;html=1;strokeColor=none;fillColor=none;align=center;verticalAlign=middle;whiteSpace=wrap;rounded=0;" parent="1" vertex="1"><mxGeometry x="3173" y="-1916.5" width="22" height="30" as="geometry"/></mxCell><mxCell id="ExdtPvuEu2BVj8xj11I--482" style="edgeStyle=none;rounded=0;orthogonalLoop=1;jettySize=auto;html=1;entryX=0.5;entryY=0;entryDx=0;entryDy=0;endArrow=classic;endFill=1;" parent="1" source="ExdtPvuEu2BVj8xj11I--483" target="ExdtPvuEu2BVj8xj11I--488" edge="1"><mxGeometry relative="1" as="geometry"/></mxCell><mxCell id="ExdtPvuEu2BVj8xj11I--483" value="" style="shape=waypoint;sketch=0;fillStyle=solid;size=6;pointerEvents=1;points=[];fillColor=none;resizable=0;rotatable=0;perimeter=centerPerimeter;snapToPoint=1;fontSize=24;" parent="1" vertex="1"><mxGeometry x="3163" y="-1920.5" width="40" height="40" as="geometry"/></mxCell><mxCell id="ExdtPvuEu2BVj8xj11I--486" style="edgeStyle=none;rounded=0;orthogonalLoop=1;jettySize=auto;html=1;exitX=1;exitY=0;exitDx=0;exitDy=0;endArrow=classic;endFill=1;" parent="1" source="ExdtPvuEu2BVj8xj11I--478" target="ExdtPvuEu2BVj8xj11I--478" edge="1"><mxGeometry relative="1" as="geometry"/></mxCell><mxCell id="ExdtPvuEu2BVj8xj11I--487" style="edgeStyle=none;rounded=0;orthogonalLoop=1;jettySize=auto;html=1;exitX=0.5;exitY=1;exitDx=0;exitDy=0;endArrow=classic;endFill=1;" parent="1" source="ExdtPvuEu2BVj8xj11I--480" target="ExdtPvuEu2BVj8xj11I--480" edge="1"><mxGeometry relative="1" as="geometry"/></mxCell><mxCell id="ExdtPvuEu2BVj8xj11I--488" value="&lt;font style=&quot;font-size: 16px;&quot;&gt;S2&lt;/font&gt;" style="ellipse;whiteSpace=wrap;html=1;aspect=fixed;fillColor=#f8cecc;strokeColor=#b85450;" parent="1" vertex="1"><mxGeometry x="3163" y="-1843.5" width="40" height="40" as="geometry"/></mxCell><mxCell id="ExdtPvuEu2BVj8xj11I--490" value="&lt;span style=&quot;font-size: 16px;&quot;&gt;S1&lt;/span&gt;" style="ellipse;whiteSpace=wrap;html=1;aspect=fixed;fillColor=#f8cecc;strokeColor=#b85450;" parent="1" vertex="1"><mxGeometry x="3254" y="-2001" width="41" height="41" as="geometry"/></mxCell><mxCell id="90AiFmgedKcCqizd896B-3" style="edgeStyle=orthogonalEdgeStyle;rounded=0;orthogonalLoop=1;jettySize=auto;html=1;" parent="1" source="90AiFmgedKcCqizd896B-1" target="ExdtPvuEu2BVj8xj11I--462" edge="1"><mxGeometry relative="1" as="geometry"/></mxCell><mxCell id="90AiFmgedKcCqizd896B-1" value="&lt;font style=&quot;font-size: 16px;&quot;&gt;I1&lt;/font&gt;" style="ellipse;whiteSpace=wrap;html=1;aspect=fixed;" parent="1" vertex="1"><mxGeometry x="3095" y="-2149" width="40" height="40" as="geometry"/></mxCell><mxCell id="vwfAdmSWS7DjHg5Ri3Iy-1" value="Hamt" style="swimlane;fontStyle=1;align=center;verticalAlign=top;childLayout=stackLayout;horizontal=1;startSize=26;horizontalStack=0;resizeParent=1;resizeParentMax=0;resizeLast=0;collapsible=1;marginBottom=0;" parent="1" vertex="1"><mxGeometry x="364" y="-2683" width="335" height="164" as="geometry"/></mxCell><mxCell id="vwfAdmSWS7DjHg5Ri3Iy-2" value="private root: INode" style="text;strokeColor=none;fillColor=none;align=left;verticalAlign=top;spacingLeft=4;spacingRight=4;overflow=hidden;rotatable=0;points=[[0,0.5],[1,0.5]];portConstraint=eastwest;" parent="vwfAdmSWS7DjHg5Ri3Iy-1" vertex="1"><mxGeometry y="26" width="335" height="25" as="geometry"/></mxCell><mxCell id="vwfAdmSWS7DjHg5Ri3Iy-3" value="" style="line;strokeWidth=1;fillColor=none;align=left;verticalAlign=middle;spacingTop=-1;spacingLeft=3;spacingRight=3;rotatable=0;labelPosition=right;points=[];portConstraint=eastwest;" parent="vwfAdmSWS7DjHg5Ri3Iy-1" vertex="1"><mxGeometry y="51" width="335" height="8" as="geometry"/></mxCell><mxCell id="vwfAdmSWS7DjHg5Ri3Iy-4" value="public insert(key: K, value: V): InsertResult" style="text;strokeColor=none;fillColor=none;align=left;verticalAlign=top;spacingLeft=4;spacingRight=4;overflow=hidden;rotatable=0;points=[[0,0.5],[1,0.5]];portConstraint=eastwest;" parent="vwfAdmSWS7DjHg5Ri3Iy-1" vertex="1"><mxGeometry y="59" width="335" height="35" as="geometry"/></mxCell><mxCell id="vwfAdmSWS7DjHg5Ri3Iy-8" value="public remove(key: K): RemoveResult" style="text;strokeColor=none;fillColor=none;align=left;verticalAlign=top;spacingLeft=4;spacingRight=4;overflow=hidden;rotatable=0;points=[[0,0.5],[1,0.5]];portConstraint=eastwest;" parent="vwfAdmSWS7DjHg5Ri3Iy-1" vertex="1"><mxGeometry y="94" width="335" height="35" as="geometry"/></mxCell><mxCell id="vwfAdmSWS7DjHg5Ri3Iy-9" value="public lookup(key: K): LookupResult" style="text;strokeColor=none;fillColor=none;align=left;verticalAlign=top;spacingLeft=4;spacingRight=4;overflow=hidden;rotatable=0;points=[[0,0.5],[1,0.5]];portConstraint=eastwest;" parent="vwfAdmSWS7DjHg5Ri3Iy-1" vertex="1"><mxGeometry y="129" width="335" height="35" as="geometry"/></mxCell><mxCell id="vwfAdmSWS7DjHg5Ri3Iy-24" style="rounded=0;orthogonalLoop=1;jettySize=auto;html=1;endArrow=block;endFill=0;" parent="1" source="vwfAdmSWS7DjHg5Ri3Iy-10" target="vwfAdmSWS7DjHg5Ri3Iy-16" edge="1"><mxGeometry relative="1" as="geometry"/></mxCell><mxCell id="vwfAdmSWS7DjHg5Ri3Iy-10" value="INode" style="swimlane;fontStyle=1;align=center;verticalAlign=top;childLayout=stackLayout;horizontal=1;startSize=26;horizontalStack=0;resizeParent=1;resizeParentMax=0;resizeLast=0;collapsible=1;marginBottom=0;" parent="1" vertex="1"><mxGeometry x="840" y="-2849" width="207" height="59" as="geometry"/></mxCell><mxCell id="vwfAdmSWS7DjHg5Ri3Iy-11" value="private main: atomic&lt;CNode*&gt;" style="text;strokeColor=none;fillColor=none;align=left;verticalAlign=top;spacingLeft=4;spacingRight=4;overflow=hidden;rotatable=0;points=[[0,0.5],[1,0.5]];portConstraint=eastwest;" parent="vwfAdmSWS7DjHg5Ri3Iy-10" vertex="1"><mxGeometry y="26" width="207" height="25" as="geometry"/></mxCell><mxCell id="vwfAdmSWS7DjHg5Ri3Iy-12" value="" style="line;strokeWidth=1;fillColor=none;align=left;verticalAlign=middle;spacingTop=-1;spacingLeft=3;spacingRight=3;rotatable=0;labelPosition=right;points=[];portConstraint=eastwest;" parent="vwfAdmSWS7DjHg5Ri3Iy-10" vertex="1"><mxGeometry y="51" width="207" height="8" as="geometry"/></mxCell><mxCell id="vwfAdmSWS7DjHg5Ri3Iy-16" value="Node" style="swimlane;fontStyle=3;align=center;verticalAlign=top;childLayout=stackLayout;horizontal=1;startSize=26;horizontalStack=0;resizeParent=1;resizeParentMax=0;resizeLast=0;collapsible=1;marginBottom=0;" parent="1" vertex="1"><mxGeometry x="1016.5" y="-2999" width="335" height="51" as="geometry"/></mxCell><mxCell id="vwfAdmSWS7DjHg5Ri3Iy-17" value="public type: NodeType" style="text;strokeColor=none;fillColor=none;align=left;verticalAlign=top;spacingLeft=4;spacingRight=4;overflow=hidden;rotatable=0;points=[[0,0.5],[1,0.5]];portConstraint=eastwest;" parent="vwfAdmSWS7DjHg5Ri3Iy-16" vertex="1"><mxGeometry y="26" width="335" height="25" as="geometry"/></mxCell><mxCell id="vwfAdmSWS7DjHg5Ri3Iy-32" style="edgeStyle=none;rounded=0;orthogonalLoop=1;jettySize=auto;html=1;endArrow=block;endFill=0;" parent="1" source="vwfAdmSWS7DjHg5Ri3Iy-29" target="vwfAdmSWS7DjHg5Ri3Iy-17" edge="1"><mxGeometry relative="1" as="geometry"><mxPoint x="1174.9999694824219" y="-2800.7999877929688" as="targetPoint"/></mxGeometry></mxCell><mxCell id="vwfAdmSWS7DjHg5Ri3Iy-29" value="SNode" style="swimlane;fontStyle=1;align=center;verticalAlign=top;childLayout=stackLayout;horizontal=1;startSize=26;horizontalStack=0;resizeParent=1;resizeParentMax=0;resizeLast=0;collapsible=1;marginBottom=0;" parent="1" vertex="1"><mxGeometry x="1110" y="-2869" width="148" height="84" as="geometry"/></mxCell><mxCell id="vwfAdmSWS7DjHg5Ri3Iy-30" value="public hash: uint64_t" style="text;strokeColor=none;fillColor=none;align=left;verticalAlign=top;spacingLeft=4;spacingRight=4;overflow=hidden;rotatable=0;points=[[0,0.5],[1,0.5]];portConstraint=eastwest;" parent="vwfAdmSWS7DjHg5Ri3Iy-29" vertex="1"><mxGeometry y="26" width="148" height="25" as="geometry"/></mxCell><mxCell id="vwfAdmSWS7DjHg5Ri3Iy-40" value="public pair: set&lt;Pair&gt;" style="text;strokeColor=none;fillColor=none;align=left;verticalAlign=top;spacingLeft=4;spacingRight=4;overflow=hidden;rotatable=0;points=[[0,0.5],[1,0.5]];portConstraint=eastwest;" parent="vwfAdmSWS7DjHg5Ri3Iy-29" vertex="1"><mxGeometry y="51" width="148" height="25" as="geometry"/></mxCell><mxCell id="vwfAdmSWS7DjHg5Ri3Iy-31" value="" style="line;strokeWidth=1;fillColor=none;align=left;verticalAlign=middle;spacingTop=-1;spacingLeft=3;spacingRight=3;rotatable=0;labelPosition=right;points=[];portConstraint=eastwest;" parent="vwfAdmSWS7DjHg5Ri3Iy-29" vertex="1"><mxGeometry y="76" width="148" height="8" as="geometry"/></mxCell><mxCell id="vwfAdmSWS7DjHg5Ri3Iy-36" style="edgeStyle=none;rounded=0;orthogonalLoop=1;jettySize=auto;html=1;entryX=0.755;entryY=1.064;entryDx=0;entryDy=0;entryPerimeter=0;endArrow=block;endFill=0;" parent="1" source="vwfAdmSWS7DjHg5Ri3Iy-33" target="vwfAdmSWS7DjHg5Ri3Iy-17" edge="1"><mxGeometry relative="1" as="geometry"/></mxCell><mxCell id="vwfAdmSWS7DjHg5Ri3Iy-33" value="CNode" style="swimlane;fontStyle=1;align=center;verticalAlign=top;childLayout=stackLayout;horizontal=1;startSize=26;horizontalStack=0;resizeParent=1;resizeParentMax=0;resizeLast=0;collapsible=1;marginBottom=0;" parent="1" vertex="1"><mxGeometry x="1346.5" y="-2872" width="225.5" height="144" as="geometry"/></mxCell><mxCell id="vwfAdmSWS7DjHg5Ri3Iy-34" value="public isTomb: bool" style="text;strokeColor=none;fillColor=none;align=left;verticalAlign=top;spacingLeft=4;spacingRight=4;overflow=hidden;rotatable=0;points=[[0,0.5],[1,0.5]];portConstraint=eastwest;" parent="vwfAdmSWS7DjHg5Ri3Iy-33" vertex="1"><mxGeometry y="26" width="225.5" height="25" as="geometry"/></mxCell><mxCell id="vwfAdmSWS7DjHg5Ri3Iy-42" value="public bmp: Bitmap" style="text;strokeColor=none;fillColor=none;align=left;verticalAlign=top;spacingLeft=4;spacingRight=4;overflow=hidden;rotatable=0;points=[[0,0.5],[1,0.5]];portConstraint=eastwest;" parent="vwfAdmSWS7DjHg5Ri3Iy-33" vertex="1"><mxGeometry y="51" width="225.5" height="25" as="geometry"/></mxCell><mxCell id="vwfAdmSWS7DjHg5Ri3Iy-41" value="public array: vector&lt;Node*&gt;" style="text;strokeColor=none;fillColor=none;align=left;verticalAlign=top;spacingLeft=4;spacingRight=4;overflow=hidden;rotatable=0;points=[[0,0.5],[1,0.5]];portConstraint=eastwest;" parent="vwfAdmSWS7DjHg5Ri3Iy-33" vertex="1"><mxGeometry y="76" width="225.5" height="25" as="geometry"/></mxCell><mxCell id="vwfAdmSWS7DjHg5Ri3Iy-35" value="" style="line;strokeWidth=1;fillColor=none;align=left;verticalAlign=middle;spacingTop=-1;spacingLeft=3;spacingRight=3;rotatable=0;labelPosition=right;points=[];portConstraint=eastwest;" parent="vwfAdmSWS7DjHg5Ri3Iy-33" vertex="1"><mxGeometry y="101" width="225.5" height="8" as="geometry"/></mxCell><mxCell id="vwfAdmSWS7DjHg5Ri3Iy-43" value="public getSubNode(uint8_t path): Node*" style="text;strokeColor=none;fillColor=none;align=left;verticalAlign=top;spacingLeft=4;spacingRight=4;overflow=hidden;rotatable=0;points=[[0,0.5],[1,0.5]];portConstraint=eastwest;" parent="vwfAdmSWS7DjHg5Ri3Iy-33" vertex="1"><mxGeometry y="109" width="225.5" height="35" as="geometry"/></mxCell><mxCell id="vwfAdmSWS7DjHg5Ri3Iy-44" value="Bitmap" style="swimlane;fontStyle=1;align=center;verticalAlign=top;childLayout=stackLayout;horizontal=1;startSize=26;horizontalStack=0;resizeParent=1;resizeParentMax=0;resizeLast=0;collapsible=1;marginBottom=0;" parent="1" vertex="1"><mxGeometry x="667" y="-3078" width="183" height="164" as="geometry"/></mxCell><mxCell id="vwfAdmSWS7DjHg5Ri3Iy-45" value="public data: uint32_t" style="text;strokeColor=none;fillColor=none;align=left;verticalAlign=top;spacingLeft=4;spacingRight=4;overflow=hidden;rotatable=0;points=[[0,0.5],[1,0.5]];portConstraint=eastwest;" parent="vwfAdmSWS7DjHg5Ri3Iy-44" vertex="1"><mxGeometry y="26" width="183" height="25" as="geometry"/></mxCell><mxCell id="vwfAdmSWS7DjHg5Ri3Iy-47" value="" style="line;strokeWidth=1;fillColor=none;align=left;verticalAlign=middle;spacingTop=-1;spacingLeft=3;spacingRight=3;rotatable=0;labelPosition=right;points=[];portConstraint=eastwest;" parent="vwfAdmSWS7DjHg5Ri3Iy-44" vertex="1"><mxGeometry y="51" width="183" height="8" as="geometry"/></mxCell><mxCell id="vwfAdmSWS7DjHg5Ri3Iy-48" value="public isSet(uint8_t path): bool" style="text;strokeColor=none;fillColor=none;align=left;verticalAlign=top;spacingLeft=4;spacingRight=4;overflow=hidden;rotatable=0;points=[[0,0.5],[1,0.5]];portConstraint=eastwest;" parent="vwfAdmSWS7DjHg5Ri3Iy-44" vertex="1"><mxGeometry y="59" width="183" height="35" as="geometry"/></mxCell><mxCell id="vwfAdmSWS7DjHg5Ri3Iy-49" value="public set(uint8_t path): bool" style="text;strokeColor=none;fillColor=none;align=left;verticalAlign=top;spacingLeft=4;spacingRight=4;overflow=hidden;rotatable=0;points=[[0,0.5],[1,0.5]];portConstraint=eastwest;" parent="vwfAdmSWS7DjHg5Ri3Iy-44" vertex="1"><mxGeometry y="94" width="183" height="35" as="geometry"/></mxCell><mxCell id="vwfAdmSWS7DjHg5Ri3Iy-50" value="public unset(uint8_t path): bool" style="text;strokeColor=none;fillColor=none;align=left;verticalAlign=top;spacingLeft=4;spacingRight=4;overflow=hidden;rotatable=0;points=[[0,0.5],[1,0.5]];portConstraint=eastwest;" parent="vwfAdmSWS7DjHg5Ri3Iy-44" vertex="1"><mxGeometry y="129" width="183" height="35" as="geometry"/></mxCell><mxCell id="vwfAdmSWS7DjHg5Ri3Iy-59" value="RemoveResult" style="swimlane;fontStyle=1;align=center;verticalAlign=top;childLayout=stackLayout;horizontal=1;startSize=26;horizontalStack=0;resizeParent=1;resizeParentMax=0;resizeLast=0;collapsible=1;marginBottom=0;" parent="1" vertex="1"><mxGeometry x="927" y="-2723" width="183" height="84" as="geometry"/></mxCell><mxCell id="vwfAdmSWS7DjHg5Ri3Iy-60" value="public value: V" style="text;strokeColor=none;fillColor=none;align=left;verticalAlign=top;spacingLeft=4;spacingRight=4;overflow=hidden;rotatable=0;points=[[0,0.5],[1,0.5]];portConstraint=eastwest;" parent="vwfAdmSWS7DjHg5Ri3Iy-59" vertex="1"><mxGeometry y="26" width="183" height="25" as="geometry"/></mxCell><mxCell id="vwfAdmSWS7DjHg5Ri3Iy-65" value="public status: Status" style="text;strokeColor=none;fillColor=none;align=left;verticalAlign=top;spacingLeft=4;spacingRight=4;overflow=hidden;rotatable=0;points=[[0,0.5],[1,0.5]];portConstraint=eastwest;" parent="vwfAdmSWS7DjHg5Ri3Iy-59" vertex="1"><mxGeometry y="51" width="183" height="25" as="geometry"/></mxCell><mxCell id="vwfAdmSWS7DjHg5Ri3Iy-61" value="" style="line;strokeWidth=1;fillColor=none;align=left;verticalAlign=middle;spacingTop=-1;spacingLeft=3;spacingRight=3;rotatable=0;labelPosition=right;points=[];portConstraint=eastwest;" parent="vwfAdmSWS7DjHg5Ri3Iy-59" vertex="1"><mxGeometry y="76" width="183" height="8" as="geometry"/></mxCell></root></mxGraphModel></diagram></mxfile>
